<?xml version="1.0" encoding="utf-8"?>
<!-- Generator: Adobe Illustrator 27.0.0, SVG Export Plug-In . SVG Version: 6.00 Build 0)  -->
<svg version="1.1" id="Calque_1" xmlns="http://www.w3.org/2000/svg" xmlns:xlink="http://www.w3.org/1999/xlink" x="0px" y="0px"
	 viewBox="0 0 273.39 177.22" style="enable-background:new 0 0 273.39 177.22;" xml:space="preserve">
<style type="text/css">
	.st0{opacity:0.5;}
	.st1{fill:none;stroke:#020203;stroke-width:3;stroke-miterlimit:10;}
	.st2{fill:#020203;}
	.st3{stroke:#020203;stroke-width:0.6266;stroke-miterlimit:10;}
	.st4{stroke:#020203;stroke-width:1.7095;stroke-miterlimit:10;}
	.st5{fill:#E94C4D;}
	.st6{fill:none;stroke:#E94C4D;stroke-width:7;stroke-linecap:round;stroke-miterlimit:10;}
	.st7{fill:none;stroke:#E94C4D;stroke-width:6;stroke-linecap:round;stroke-miterlimit:10;}
	.st8{fill:#D6AD04;}
	.st9{fill:none;stroke:#D6AD04;stroke-width:7;stroke-linecap:round;stroke-miterlimit:10;}
	.st10{fill:none;stroke:#D6AD04;stroke-width:6;stroke-linecap:round;stroke-miterlimit:10;}
	.st11{fill:#72B84C;}
	.st12{fill:none;stroke:#72B84C;stroke-width:7;stroke-linecap:round;stroke-miterlimit:10;}
	.st13{fill:none;stroke:#72B84C;stroke-width:6;stroke-linecap:round;stroke-miterlimit:10;}
	.st14{fill:#61A2D8;}
	.st15{fill:none;stroke:#61A2D8;stroke-width:7;stroke-linecap:round;stroke-miterlimit:10;}
	.st16{fill:none;stroke:#61A2D8;stroke-width:6;stroke-linecap:round;stroke-miterlimit:10;}
</style>
<g class="st0">
	<g>
		<g>
			<path class="st1" d="M449.97,48.71c20.59,36.21,40.85,46.45,55.69,49.04c30.92,5.4,52.02-19.98,119-48c26.64-11.14,49.3-18,64-22
				"/>
			<g>
				<path class="st2" d="M445.66,40.75c0.66,4.5,0.83,10.43-0.11,14.67l5.02-5.69l7.5-1.16C453.99,47.07,449.09,43.73,445.66,40.75z
					"/>
			</g>
		</g>
	</g>
	<g>
		<path class="st3" d="M693.23,20.17c0.69-0.2,1.38-0.4,2.08-0.58c0.81-0.21,1.38-0.67,1.75-1.43c1.03-2.11,2.62-3.66,4.72-4.72
			c4.95-2.5,11.36-0.25,13.65,4.8c2.33,5.14,0.38,10.9-4.66,13.42c-3.34,1.67-6.7,1.48-9.9-0.45c-0.84-0.51-1.64-0.66-2.58-0.37
			c-1.31,0.41-2.65,0.75-3.98,1.13c-1.07,0.31-1.94,0.05-2.62-0.84c-0.08-0.11-0.28-0.17-0.42-0.17c-1.43,0.03-2.54-0.76-2.94-2.14
			c-0.23-0.78-0.45-1.56-0.66-2.35c-0.34-1.29,0.2-2.6,1.37-3.24c0.25-0.13,0.31-0.27,0.34-0.53c0.12-0.96,0.65-1.61,1.58-1.89
			C691.72,20.58,692.48,20.38,693.23,20.17z M698.93,29.34c0.94-0.08,1.75,0.18,2.51,0.67c3.23,2.09,7.46,1.84,10.42-0.6
			c2.99-2.46,4.09-6.52,2.61-10.08c-1.4-3.38-4.01-5.29-7.64-5.56c-3.61-0.26-6.41,1.29-8.27,4.39c-0.57,0.94-1.03,1.93-2.09,2.41
			C697.29,23.51,698.1,26.4,698.93,29.34z M695.18,20.99c-1.33,0.37-2.61,0.72-3.88,1.1c-0.5,0.15-0.71,0.61-0.55,1.17
			c0.63,2.26,1.26,4.52,1.9,6.77c0.18,0.65,0.6,0.86,1.26,0.68c0.66-0.18,1.33-0.37,1.99-0.56c0.57-0.16,1.13-0.32,1.72-0.48
			C696.8,26.75,696,23.9,695.18,20.99z M689.67,24.38c-0.63,0.41-0.9,0.95-0.75,1.6c0.2,0.91,0.47,1.82,0.76,2.7
			c0.21,0.64,0.86,1,1.45,0.88C690.65,27.85,690.17,26.14,689.67,24.38z"/>
		<path d="M705.3,23.54c0.33-0.35,0.64-0.69,0.95-1.01c1.17-1.18,2.34-2.36,3.52-3.52c0.45-0.44,1.03-0.45,1.39-0.06
			c0.36,0.38,0.34,0.9-0.09,1.34c-1.69,1.71-3.39,3.41-5.09,5.1c-0.51,0.51-0.96,0.5-1.48-0.01c-1.12-1.1-2.23-2.22-3.33-3.34
			c-0.47-0.48-0.51-0.99-0.13-1.39c0.38-0.4,0.95-0.37,1.44,0.11c0.77,0.75,1.51,1.51,2.27,2.27
			C704.91,23.18,705.07,23.32,705.3,23.54z"/>
		<path d="M718.28,31.88l5.37,2.86c0.56,0.3,1.25,0.08,1.54-0.47v0c0.3-0.56,0.08-1.25-0.47-1.54l-5.37-2.86
			c-0.56-0.3-1.25-0.08-1.54,0.47v0C717.51,30.89,717.72,31.58,718.28,31.88z"/>
		<path d="M708.69,37.06l1.78,5.82c0.18,0.6,0.82,0.94,1.42,0.76v0c0.6-0.18,0.94-0.82,0.76-1.42l-1.78-5.82
			c-0.18-0.6-0.82-0.94-1.42-0.76l0,0C708.85,35.82,708.51,36.46,708.69,37.06z"/>
		<path d="M725.27,15.86l-5.82,1.78c-0.6,0.18-0.94,0.82-0.76,1.42v0c0.18,0.6,0.82,0.94,1.42,0.76l5.82-1.78
			c0.6-0.18,0.94-0.82,0.76-1.42v0C726.51,16.02,725.87,15.68,725.27,15.86z"/>
		<path d="M711.7,8.46l3.1-5.24c0.32-0.54,1.02-0.72,1.56-0.4v0c0.54,0.32,0.72,1.02,0.4,1.56l-3.1,5.24
			c-0.32,0.54-1.02,0.72-1.56,0.4v0C711.56,9.7,711.38,9,711.7,8.46z"/>
		<path d="M700.82,9.02l-1.51-5.89c-0.16-0.61,0.21-1.23,0.82-1.39v0c0.61-0.16,1.23,0.21,1.39,0.82l1.51,5.89
			c0.16,0.61-0.21,1.23-0.82,1.39v0C701.6,10,700.98,9.63,700.82,9.02z"/>
	</g>
</g>
<g class="st0">
	<g>
		<g>
			<path class="st1" d="M489.42,149.66c57-38,89.71-33.72,107-7c11,17,7.9,55.28,32,77c17.48,15.76,44.64,15,67.14,10.85"/>
			<g>
				<path class="st2" d="M704.42,228.66c-3.86,2.4-8.49,6.11-11.13,9.56l1.1-7.51l-3.96-6.47
					C694.21,226.39,699.93,227.97,704.42,228.66z"/>
			</g>
		</g>
	</g>
	<g>
		<path class="st3" d="M486.84,157.84c-0.61,0.38-1.22,0.77-1.84,1.13c-0.73,0.42-1.14,1.03-1.29,1.86
			c-0.41,2.31-1.51,4.24-3.24,5.84c-4.08,3.76-10.85,3.37-14.44-0.86c-3.65-4.3-3.36-10.37,0.79-14.18
			c2.75-2.52,6.03-3.26,9.64-2.29c0.95,0.26,1.76,0.19,2.58-0.36c1.15-0.76,2.34-1.45,3.51-2.18c0.94-0.59,1.85-0.58,2.75,0.08
			c0.11,0.08,0.32,0.09,0.45,0.05c1.37-0.43,2.66,0.03,3.42,1.25c0.43,0.69,0.86,1.38,1.28,2.08c0.69,1.15,0.52,2.55-0.43,3.49
			c-0.2,0.2-0.22,0.35-0.18,0.61c0.14,0.95-0.18,1.73-1,2.26C488.18,157.03,487.5,157.43,486.84,157.84z M478.84,150.59
			c-0.88,0.34-1.73,0.31-2.6,0.04c-3.68-1.12-7.68,0.29-9.85,3.45c-2.2,3.19-2.14,7.39,0.26,10.41c2.27,2.86,5.31,3.99,8.88,3.24
			c3.54-0.74,5.8-3,6.74-6.5c0.28-1.06,0.46-2.14,1.35-2.89C482.01,155.74,480.44,153.19,478.84,150.59z M484.73,157.59
			c1.17-0.72,2.31-1.41,3.43-2.12c0.44-0.28,0.51-0.78,0.2-1.28c-1.22-2-2.45-3.99-3.69-5.99c-0.35-0.57-0.81-0.66-1.4-0.3
			c-0.59,0.36-1.17,0.72-1.76,1.08c-0.5,0.31-1,0.62-1.52,0.94C481.59,152.49,483.15,155.02,484.73,157.59z M489.1,152.81
			c0.49-0.57,0.6-1.16,0.28-1.74c-0.45-0.82-0.95-1.62-1.47-2.39c-0.38-0.56-1.1-0.72-1.64-0.45
			C487.2,149.74,488.14,151.25,489.1,152.81z"/>
		<path d="M473.2,160.24c0.33-0.35,0.64-0.69,0.95-1.01c1.17-1.18,2.34-2.36,3.52-3.52c0.45-0.44,1.03-0.45,1.39-0.06
			c0.36,0.38,0.34,0.9-0.09,1.34c-1.69,1.71-3.39,3.41-5.09,5.1c-0.51,0.51-0.96,0.5-1.48-0.01c-1.12-1.1-2.23-2.22-3.33-3.34
			c-0.47-0.48-0.51-0.99-0.13-1.39c0.38-0.4,0.95-0.37,1.44,0.11c0.77,0.75,1.51,1.51,2.27,2.27
			C472.81,159.88,472.97,160.02,473.2,160.24z"/>
		<path d="M459.53,153.47l-5.95-1.27c-0.62-0.13-1.22,0.26-1.35,0.88l0,0c-0.13,0.62,0.26,1.22,0.88,1.35l5.95,1.27
			c0.62,0.13,1.22-0.26,1.35-0.88l0,0C460.54,154.21,460.15,153.6,459.53,153.47z"/>
		<path d="M467.32,145.85l-3.31-5.11c-0.34-0.53-1.05-0.68-1.58-0.34l0,0c-0.53,0.34-0.68,1.05-0.34,1.58l3.31,5.11
			c0.34,0.53,1.05,0.68,1.58,0.34l0,0C467.52,147.09,467.67,146.38,467.32,145.85z"/>
		<path d="M457.22,170.79l5.11-3.31c0.53-0.34,0.68-1.05,0.34-1.58l0,0c-0.34-0.53-1.05-0.68-1.58-0.34l-5.11,3.31
			c-0.53,0.34-0.68,1.05-0.34,1.58v0C455.98,170.98,456.69,171.13,457.22,170.79z"/>
		<path d="M472.3,174.18l-1.54,5.89c-0.16,0.61-0.78,0.97-1.39,0.81v0c-0.61-0.16-0.97-0.78-0.81-1.39l1.54-5.89
			c0.16-0.61,0.78-0.97,1.39-0.81l0,0C472.09,172.95,472.46,173.57,472.3,174.18z"/>
		<path d="M482.6,170.64l3.07,5.25c0.32,0.54,0.14,1.24-0.41,1.56l0,0c-0.54,0.32-1.24,0.14-1.56-0.41l-3.07-5.25
			c-0.32-0.54-0.14-1.24,0.41-1.56l0,0C481.59,169.92,482.28,170.1,482.6,170.64z"/>
	</g>
</g>
<g class="st0">
	<path class="st4" d="M796.1,203.02c0-1.97-0.05-3.93,0-5.9c0.06-2.29-0.76-4.12-2.48-5.65c-4.79-4.25-7.71-9.57-8.95-15.86
		c-2.93-14.85,7.68-30.03,22.63-32.34c15.22-2.35,28.92,7,31.84,22.09c1.94,10-1.03,18.69-8.45,25.69
		c-1.96,1.85-2.94,3.81-2.86,6.51c0.12,3.76,0.02,7.52,0.05,11.28c0.03,3.03-1.29,5.12-4.12,6.27c-0.34,0.14-0.66,0.61-0.76,0.98
		c-0.96,3.79-3.88,6.13-7.78,6.16c-2.22,0.02-4.43,0.03-6.65,0c-3.65-0.05-6.68-2.43-7.49-5.98c-0.17-0.74-0.49-1.01-1.15-1.29
		c-2.42-1.02-3.75-2.89-3.81-5.55C796.07,207.29,796.11,205.16,796.1,203.02z M824.38,194.79c0.47-2.53,1.75-4.46,3.61-6.09
		c7.86-6.96,10.3-18.25,6.07-27.83c-4.27-9.67-14.13-15.52-24.58-14.26c-9.9,1.2-16.85,6.64-20.21,16
		c-3.34,9.29-1.31,17.78,5.47,24.96c2.06,2.18,4.32,4.12,4.8,7.26C807.88,194.81,816.06,194.8,824.38,194.79z M799.69,198.49
		c0,3.76-0.03,7.39,0.03,11.01c0.02,1.43,1.07,2.3,2.68,2.3c6.39,0.01,12.79,0.01,19.18-0.02c1.83-0.01,2.69-0.94,2.7-2.82
		c0.01-1.88,0-3.76,0-5.64c0-1.61,0-3.21-0.01-4.86C816.02,198.47,807.94,198.48,799.69,198.49z M804.55,215.46
		c0.63,1.96,1.84,3.06,3.65,3.15c2.55,0.13,5.11,0.11,7.66-0.01c1.85-0.08,3.24-1.52,3.38-3.16
		C814.4,215.45,809.56,215.46,804.55,215.46z"/>
	<path d="M808.5,174.66c0.91-0.96,1.73-1.89,2.61-2.76c3.19-3.21,6.38-6.43,9.61-9.61c1.23-1.21,2.8-1.23,3.8-0.17
		c0.98,1.04,0.94,2.47-0.25,3.66c-4.61,4.66-9.24,9.3-13.89,13.92c-1.39,1.38-2.63,1.37-4.03-0.02c-3.05-3.01-6.08-6.06-9.09-9.11
		c-1.28-1.3-1.38-2.71-0.36-3.78c1.04-1.1,2.59-1.01,3.93,0.3c2.09,2.04,4.13,4.13,6.2,6.19
		C807.43,173.68,807.86,174.06,808.5,174.66z"/>
	<path d="M845.26,145.8l11.45-12.01c1.19-1.24,1.14-3.21-0.11-4.4l0,0c-1.24-1.19-3.21-1.14-4.4,0.11l-11.45,12.01
		c-1.19,1.24-1.14,3.21,0.11,4.4l0,0C842.11,147.09,844.08,147.05,845.26,145.8z"/>
	<path d="M851.84,174.79l16.59-0.4c1.72-0.04,3.08-1.47,3.04-3.18l0,0c-0.04-1.72-1.47-3.08-3.18-3.04l-16.59,0.4
		c-1.72,0.04-3.08,1.47-3.04,3.18l0,0C848.7,173.47,850.12,174.83,851.84,174.79z"/>
	<path d="M808.31,115.67l0.4,16.59c0.04,1.72,1.47,3.08,3.18,3.04l0,0c1.72-0.04,3.08-1.47,3.04-3.18l-0.4-16.59
		c-0.04-1.72-1.47-3.08-3.18-3.04l0,0C809.63,112.53,808.27,113.95,808.31,115.67z"/>
	<path d="M778.89,145.88l-11.48-11.99c-1.19-1.24-1.15-3.21,0.09-4.4l0,0c1.24-1.19,3.21-1.15,4.4,0.09l11.48,11.99
		c1.19,1.24,1.15,3.21-0.09,4.4l0,0C782.05,147.17,780.08,147.12,778.89,145.88z"/>
	<path d="M772.39,174.89l-16.59-0.36c-1.72-0.04-3.08-1.46-3.04-3.18l0,0c0.04-1.72,1.46-3.08,3.18-3.04l16.59,0.36
		c1.72,0.04,3.08,1.46,3.04,3.18v0C775.53,173.56,774.11,174.93,772.39,174.89z"/>
</g>
<g>
	<g>
		<path class="st5" d="M159.5,3c7.66,0,13.88,6.23,13.88,13.88v45.84c0,7.66-6.23,13.88-13.88,13.88h-45.84
			c-7.66,0-13.88-6.23-13.88-13.88V16.88C99.77,9.23,106,3,113.65,3H159.5 M159.5,0h-45.84c-9.33,0-16.88,7.56-16.88,16.88v45.84
			c0,9.33,7.56,16.88,16.88,16.88h45.84c9.33,0,16.88-7.56,16.88-16.88V16.88C176.38,7.56,168.82,0,159.5,0L159.5,0z"/>
	</g>
	<line class="st6" x1="136.92" y1="33.97" x2="136.92" y2="58.68"/>
	<path class="st7" d="M117.03,38.09l15.04-15.04c2.47-2.47,6.47-2.47,8.94,0l14.98,14.98"/>
</g>
<g>
	<g>
		<path class="st8" d="M62.73,100.45c7.66,0,13.88,6.23,13.88,13.88v45.84c0,7.66-6.23,13.88-13.88,13.88H16.88
			C9.23,174.07,3,167.84,3,160.18v-45.84c0-7.66,6.23-13.88,13.88-13.88H62.73 M62.73,97.45H16.88C7.56,97.45,0,105.01,0,114.34
			v45.84c0,9.33,7.56,16.88,16.88,16.88h45.84c9.33,0,16.88-7.56,16.88-16.88v-45.84C79.61,105.01,72.05,97.45,62.73,97.45
			L62.73,97.45z"/>
	</g>
	<line class="st9" x1="33.97" y1="136.92" x2="58.68" y2="136.92"/>
	<path class="st10" d="M38.09,156.81l-15.04-15.04c-2.47-2.47-2.47-6.47,0-8.94l14.98-14.98"/>
</g>
<g>
	<g>
		<path class="st11" d="M256.26,100.45c7.66,0,13.88,6.23,13.88,13.88v45.84c0,7.66-6.23,13.88-13.88,13.88h-45.84
			c-7.66,0-13.88-6.23-13.88-13.88v-45.84c0-7.66,6.23-13.88,13.88-13.88H256.26 M256.26,97.45h-45.84
			c-9.33,0-16.88,7.56-16.88,16.88v45.84c0,9.33,7.56,16.88,16.88,16.88h45.84c9.33,0,16.88-7.56,16.88-16.88v-45.84
			C273.15,105.01,265.59,97.45,256.26,97.45L256.26,97.45z"/>
	</g>
	<line class="st12" x1="239.44" y1="137.05" x2="214.73" y2="137.05"/>
	<path class="st13" d="M235.32,117.16l15.04,15.04c2.47,2.47,2.47,6.47,0,8.94l-14.98,14.98"/>
</g>
<g>
	<g>
		<path class="st14" d="M159.5,100.45c7.66,0,13.88,6.23,13.88,13.88v45.84c0,7.66-6.23,13.88-13.88,13.88h-45.84
			c-7.66,0-13.88-6.23-13.88-13.88v-45.84c0-7.66,6.23-13.88,13.88-13.88H159.5 M159.5,97.45h-45.84c-9.33,0-16.88,7.56-16.88,16.88
			v45.84c0,9.33,7.56,16.88,16.88,16.88h45.84c9.33,0,16.88-7.56,16.88-16.88v-45.84C176.38,105.01,168.82,97.45,159.5,97.45
			L159.5,97.45z"/>
	</g>
	<line class="st15" x1="136.3" y1="143.29" x2="136.3" y2="118.59"/>
	<path class="st16" d="M156.19,139.18l-15.04,15.04c-2.47,2.47-6.47,2.47-8.94,0l-14.98-14.98"/>
</g>
</svg>
