<?xml version="1.0" encoding="utf-8"?>
<!-- Generator: Adobe Illustrator 27.0.0, SVG Export Plug-In . SVG Version: 6.00 Build 0)  -->
<svg version="1.1" id="Calque_1" xmlns="http://www.w3.org/2000/svg" xmlns:xlink="http://www.w3.org/1999/xlink" x="0px" y="0px"
	 viewBox="0 0 285.44 102.99" style="enable-background:new 0 0 285.44 102.99;" xml:space="preserve">
<style type="text/css">
	.st0{opacity:0.5;}
	.st1{fill:none;stroke:#020203;stroke-width:3;stroke-miterlimit:10;}
	.st2{fill:#020203;}
	.st3{stroke:#020203;stroke-width:0.6266;stroke-miterlimit:10;}
</style>
<g class="st0">
	<g>
		<g>
			<path class="st1" d="M4.31,50.84C24.91,87.05,45.16,97.29,60,99.88c30.92,5.4,52.02-19.98,119-48c26.64-11.14,49.3-18,64-22"/>
			<g>
				<path class="st2" d="M0,42.88c0.66,4.5,0.83,10.43-0.11,14.67l5.02-5.69l7.5-1.16C8.33,49.2,3.43,45.86,0,42.88z"/>
			</g>
		</g>
	</g>
	<g>
		<path class="st3" d="M247.57,22.3c0.69-0.2,1.38-0.4,2.08-0.58c0.81-0.21,1.38-0.67,1.75-1.43c1.03-2.11,2.62-3.66,4.72-4.72
			c4.95-2.5,11.36-0.25,13.65,4.8c2.33,5.14,0.38,10.9-4.66,13.42c-3.34,1.67-6.7,1.48-9.9-0.45c-0.84-0.51-1.64-0.66-2.58-0.37
			c-1.31,0.41-2.65,0.75-3.98,1.13c-1.07,0.31-1.94,0.05-2.62-0.84c-0.08-0.11-0.28-0.17-0.42-0.17c-1.43,0.03-2.54-0.76-2.94-2.14
			c-0.23-0.78-0.45-1.56-0.66-2.35c-0.34-1.29,0.2-2.6,1.37-3.24c0.25-0.13,0.31-0.27,0.34-0.53c0.12-0.96,0.65-1.61,1.58-1.89
			C246.06,22.71,246.82,22.51,247.57,22.3z M253.27,31.47c0.94-0.08,1.75,0.18,2.51,0.67c3.23,2.09,7.46,1.84,10.42-0.6
			c2.99-2.46,4.09-6.52,2.61-10.08c-1.4-3.38-4.01-5.29-7.64-5.56c-3.61-0.26-6.41,1.29-8.27,4.39c-0.57,0.94-1.03,1.93-2.09,2.41
			C251.63,25.65,252.44,28.53,253.27,31.47z M249.53,23.12c-1.33,0.37-2.61,0.72-3.88,1.1c-0.5,0.15-0.71,0.61-0.55,1.17
			c0.63,2.26,1.26,4.52,1.9,6.77c0.18,0.65,0.6,0.86,1.26,0.68c0.66-0.18,1.33-0.37,1.99-0.56c0.57-0.16,1.13-0.32,1.72-0.48
			C251.14,28.88,250.34,26.03,249.53,23.12z M244.02,26.51c-0.63,0.41-0.9,0.95-0.75,1.6c0.2,0.91,0.47,1.82,0.76,2.7
			c0.21,0.64,0.86,1,1.45,0.88C244.99,29.99,244.51,28.28,244.02,26.51z"/>
		<path d="M259.65,25.68c0.33-0.35,0.64-0.69,0.95-1.01c1.17-1.18,2.34-2.36,3.52-3.52c0.45-0.44,1.03-0.45,1.39-0.06
			c0.36,0.38,0.34,0.9-0.09,1.34c-1.69,1.71-3.39,3.41-5.09,5.1c-0.51,0.51-0.96,0.5-1.48-0.01c-1.12-1.1-2.23-2.22-3.33-3.34
			c-0.47-0.48-0.51-0.99-0.13-1.39c0.38-0.4,0.95-0.37,1.44,0.11c0.77,0.75,1.51,1.51,2.27,2.27
			C259.25,25.32,259.41,25.46,259.65,25.68z"/>
		<path d="M272.62,34.01l5.37,2.86c0.56,0.3,1.25,0.08,1.54-0.47v0c0.3-0.56,0.08-1.25-0.47-1.54L273.69,32
			c-0.56-0.3-1.25-0.08-1.54,0.47l0,0C271.85,33.02,272.07,33.71,272.62,34.01z"/>
		<path d="M263.04,39.19l1.78,5.82c0.18,0.6,0.82,0.94,1.42,0.76l0,0c0.6-0.18,0.94-0.82,0.76-1.42l-1.78-5.82
			c-0.18-0.6-0.82-0.94-1.42-0.76l0,0C263.19,37.95,262.85,38.59,263.04,39.19z"/>
		<path d="M279.61,17.99l-5.82,1.78c-0.6,0.18-0.94,0.82-0.76,1.42v0c0.18,0.6,0.82,0.94,1.42,0.76l5.82-1.78
			c0.6-0.18,0.94-0.82,0.76-1.42v0C280.85,18.15,280.22,17.81,279.61,17.99z"/>
		<path d="M266.05,10.59l3.1-5.24c0.32-0.54,1.02-0.72,1.56-0.4v0c0.54,0.32,0.72,1.02,0.4,1.56l-3.1,5.24
			c-0.32,0.54-1.02,0.72-1.56,0.4v0C265.9,11.83,265.73,11.13,266.05,10.59z"/>
		<path d="M255.17,11.15l-1.51-5.89c-0.16-0.61,0.21-1.23,0.82-1.39v0c0.61-0.16,1.23,0.21,1.39,0.82l1.51,5.89
			c0.16,0.61-0.21,1.23-0.82,1.39l0,0C255.94,12.13,255.32,11.76,255.17,11.15z"/>
	</g>
</g>
</svg>
