<?xml version="1.0" encoding="utf-8"?>
<!-- Generator: Adobe Illustrator 27.0.0, SVG Export Plug-In . SVG Version: 6.00 Build 0)  -->
<svg version="1.1" id="Calque_1" xmlns="http://www.w3.org/2000/svg" xmlns:xlink="http://www.w3.org/1999/xlink" x="0px" y="0px"
	 viewBox="0 0 196.8 63.2" style="enable-background:new 0 0 196.8 63.2;" xml:space="preserve">
<style type="text/css">
	.st0{opacity:0.5;}
	.st1{stroke:#020203;stroke-width:0.6266;stroke-miterlimit:10;}
	.st2{fill:none;stroke:#000000;stroke-width:3;stroke-miterlimit:10;}
</style>
<g class="st0">
	<g>
		<path class="st1" d="M36.4,38.8c-0.6,0.4-1.2,0.8-1.8,1.1c-0.7,0.4-1.1,1-1.3,1.9c-0.4,2.3-1.5,4.2-3.2,5.8
			C26,51.4,19.2,51,15.6,46.8c-3.7-4.3-3.4-10.4,0.8-14.2c2.8-2.5,6-3.3,9.6-2.3c1,0.3,1.8,0.2,2.6-0.4c1.1-0.8,2.3-1.5,3.5-2.2
			c0.9-0.6,1.8-0.6,2.8,0.1c0.1,0.1,0.3,0.1,0.5,0c1.4-0.4,2.7,0,3.4,1.2c0.4,0.7,0.9,1.4,1.3,2.1c0.7,1.2,0.5,2.5-0.4,3.5
			c-0.2,0.2-0.2,0.3-0.2,0.6c0.1,1-0.2,1.7-1,2.3C37.8,38,37.1,38.4,36.4,38.8z M28.4,31.6c-0.9,0.3-1.7,0.3-2.6,0
			c-3.7-1.1-7.7,0.3-9.9,3.5c-2.2,3.2-2.1,7.4,0.3,10.4c2.3,2.9,5.3,4,8.9,3.2c3.5-0.7,5.8-3,6.7-6.5c0.3-1.1,0.5-2.1,1.4-2.9
			C31.6,36.7,30,34.2,28.4,31.6z M34.3,38.6c1.2-0.7,2.3-1.4,3.4-2.1c0.4-0.3,0.5-0.8,0.2-1.3c-1.2-2-2.5-4-3.7-6
			c-0.3-0.6-0.8-0.7-1.4-0.3s-1.2,0.7-1.8,1.1c-0.5,0.3-1,0.6-1.5,0.9C31.2,33.5,32.7,36,34.3,38.6z M38.7,33.8
			c0.5-0.6,0.6-1.2,0.3-1.7c-0.5-0.8-1-1.6-1.5-2.4c-0.4-0.6-1.1-0.7-1.6-0.5C36.8,30.7,37.7,32.2,38.7,33.8z"/>
		<path d="M22.8,41.2c0.3-0.3,0.6-0.7,1-1c1.2-1.2,2.3-2.4,3.5-3.5c0.5-0.4,1-0.5,1.4-0.1C29,37,29,37.6,28.6,38
			c-1.7,1.7-3.4,3.4-5.1,5.1c-0.5,0.5-1,0.5-1.5,0c-1.1-1.1-2.2-2.2-3.3-3.3c-0.5-0.5-0.5-1-0.1-1.4c0.4-0.4,1-0.4,1.4,0.1
			c0.8,0.8,1.5,1.5,2.3,2.3C22.4,40.9,22.6,41,22.8,41.2z"/>
		<path d="M9.1,34.5l-5.9-1.3c-0.6-0.1-1.2,0.3-1.4,0.9l0,0c-0.1,0.6,0.3,1.2,0.9,1.3l5.9,1.3c0.6,0.1,1.2-0.3,1.4-0.9l0,0
			C10.1,35.2,9.7,34.6,9.1,34.5z"/>
		<path d="M16.9,26.9l-3.3-5.1c-0.3-0.5-1.1-0.7-1.6-0.3l0,0c-0.5,0.3-0.7,1-0.3,1.6l3.3,5.1c0.3,0.5,1,0.7,1.6,0.3l0,0
			C17.1,28.1,17.3,27.4,16.9,26.9z"/>
		<path d="M6.8,51.8l5.1-3.3c0.5-0.3,0.7-1,0.3-1.6l0,0c-0.3-0.5-1.1-0.7-1.6-0.3l-5.1,3.3c-0.5,0.3-0.7,1-0.3,1.6l0,0
			C5.6,52,6.3,52.1,6.8,51.8z"/>
		<path d="M21.9,55.2l-1.5,5.9c-0.2,0.6-0.8,1-1.4,0.8l0,0c-0.6-0.2-1-0.8-0.8-1.4l1.5-5.9c0.2-0.6,0.8-1,1.4-0.8l0,0
			C21.7,54,22,54.6,21.9,55.2z"/>
		<path d="M32.2,51.6l3.1,5.2c0.3,0.5,0.1,1.2-0.4,1.6l0,0c-0.5,0.3-1.2,0.1-1.6-0.4l-3.1-5.2c-0.3-0.5-0.1-1.2,0.4-1.6l0,0
			C31.2,50.9,31.9,51.1,32.2,51.6z"/>
	</g>
	<g>
		<g>
			<path class="st2" d="M184.5,34.7c-20.9-16.2-41.4-24.1-67.5-24.2c-22.4-0.1-50.4,4.7-77.9,19.9"/>
			<g>
				<path d="M194.9,43.5c-3.4-5.9-6.9-14.1-8-20.5l-3.9,10.7l-9.8,5.8C179.8,39.2,188.5,41.2,194.9,43.5z"/>
			</g>
		</g>
	</g>
</g>
</svg>
