<?xml version="1.0" encoding="utf-8"?>
<!-- Generator: Adobe Illustrator 27.0.0, SVG Export Plug-In . SVG Version: 6.00 Build 0)  -->
<svg version="1.1" id="Calque_1" xmlns="http://www.w3.org/2000/svg" xmlns:xlink="http://www.w3.org/1999/xlink" x="0px" y="0px"
	 viewBox="0 0 255.7 120.57" style="enable-background:new 0 0 255.7 120.57;" xml:space="preserve">
<style type="text/css">
	.st0{opacity:0.5;}
	.st1{fill:none;stroke:#020203;stroke-width:3;stroke-miterlimit:10;}
	.st2{fill:#020203;}
	.st3{stroke:#020203;stroke-width:0.6266;stroke-miterlimit:10;}
</style>
<g class="st0">
	<g>
		<g>
			<path class="st1" d="M-0.44-70.29c20.59,36.21,40.85,46.45,55.69,49.04c30.92,5.4,52.02-19.98,119-48c26.64-11.14,49.3-18,64-22"
				/>
			<g>
				<path class="st2" d="M-4.75-78.25c0.66,4.5,0.83,10.43-0.11,14.67l5.02-5.69l7.5-1.16C3.58-71.93-1.32-75.27-4.75-78.25z"/>
			</g>
		</g>
	</g>
	<g>
		<path class="st3" d="M242.82-98.83c0.69-0.2,1.38-0.4,2.08-0.58c0.81-0.21,1.38-0.67,1.75-1.43c1.03-2.11,2.62-3.66,4.72-4.72
			c4.95-2.5,11.36-0.25,13.65,4.8c2.33,5.14,0.38,10.9-4.66,13.42c-3.34,1.67-6.7,1.48-9.9-0.45c-0.84-0.51-1.64-0.66-2.58-0.37
			c-1.31,0.41-2.65,0.75-3.98,1.13c-1.07,0.31-1.94,0.05-2.62-0.84c-0.08-0.11-0.28-0.17-0.42-0.17c-1.43,0.03-2.54-0.76-2.94-2.14
			c-0.23-0.78-0.45-1.56-0.66-2.35c-0.34-1.29,0.2-2.6,1.37-3.24c0.25-0.13,0.31-0.27,0.34-0.53c0.12-0.96,0.65-1.61,1.58-1.89
			C241.31-98.42,242.07-98.62,242.82-98.83z M248.52-89.66c0.94-0.08,1.75,0.18,2.51,0.67c3.23,2.09,7.46,1.84,10.42-0.6
			c2.99-2.46,4.09-6.52,2.61-10.08c-1.4-3.38-4.01-5.29-7.64-5.56c-3.61-0.26-6.41,1.29-8.27,4.39c-0.57,0.94-1.03,1.93-2.09,2.41
			C246.88-95.49,247.69-92.6,248.52-89.66z M244.78-98.01c-1.33,0.37-2.61,0.72-3.88,1.1c-0.5,0.15-0.71,0.61-0.55,1.17
			c0.63,2.26,1.26,4.52,1.9,6.77c0.18,0.65,0.6,0.86,1.26,0.68c0.66-0.18,1.33-0.37,1.99-0.56c0.57-0.16,1.13-0.32,1.72-0.48
			C246.39-92.25,245.59-95.1,244.78-98.01z M239.27-94.62c-0.63,0.41-0.9,0.95-0.75,1.6c0.2,0.91,0.47,1.82,0.76,2.7
			c0.21,0.64,0.86,1,1.45,0.88C240.24-91.15,239.76-92.86,239.27-94.62z"/>
		<path d="M254.89-95.46c0.33-0.35,0.64-0.69,0.95-1.01c1.17-1.18,2.34-2.36,3.52-3.52c0.45-0.44,1.03-0.45,1.39-0.06
			c0.36,0.38,0.34,0.9-0.09,1.34c-1.69,1.71-3.39,3.41-5.09,5.1c-0.51,0.51-0.96,0.5-1.48-0.01c-1.12-1.1-2.23-2.22-3.33-3.34
			c-0.47-0.48-0.51-0.99-0.13-1.39c0.38-0.4,0.95-0.37,1.44,0.11c0.77,0.75,1.51,1.51,2.27,2.27
			C254.5-95.82,254.66-95.68,254.89-95.46z"/>
		<path d="M267.87-87.12l5.37,2.86c0.56,0.3,1.25,0.08,1.54-0.47l0,0c0.3-0.56,0.08-1.25-0.47-1.54l-5.37-2.86
			c-0.56-0.3-1.25-0.08-1.54,0.47l0,0C267.1-88.11,267.31-87.42,267.87-87.12z"/>
		<path d="M258.29-81.94l1.78,5.82c0.18,0.6,0.82,0.94,1.42,0.76l0,0c0.6-0.18,0.94-0.82,0.76-1.42l-1.78-5.82
			c-0.18-0.6-0.82-0.94-1.42-0.76l0,0C258.44-83.18,258.1-82.54,258.29-81.94z"/>
		<path d="M274.86-103.14l-5.82,1.78c-0.6,0.18-0.94,0.82-0.76,1.42l0,0c0.18,0.6,0.82,0.94,1.42,0.76l5.82-1.78
			c0.6-0.18,0.94-0.82,0.76-1.42l0,0C276.1-102.98,275.46-103.32,274.86-103.14z"/>
		<path d="M261.3-110.54l3.1-5.24c0.32-0.54,1.02-0.72,1.56-0.4h0c0.54,0.32,0.72,1.02,0.4,1.56l-3.1,5.24
			c-0.32,0.54-1.02,0.72-1.56,0.4h0C261.15-109.3,260.97-110,261.3-110.54z"/>
		<path d="M250.41-109.98l-1.51-5.89c-0.16-0.61,0.21-1.23,0.82-1.39l0,0c0.61-0.16,1.23,0.21,1.39,0.82l1.51,5.89
			c0.16,0.61-0.21,1.23-0.82,1.39l0,0C251.19-109,250.57-109.37,250.41-109.98z"/>
	</g>
</g>
<g class="st0">
	<g>
		<g>
			<path class="st1" d="M39.01,30.66c57-38,89.71-33.72,107-7c11,17,7.9,55.28,32,77c17.48,15.76,44.64,15,67.14,10.85"/>
			<g>
				<path class="st2" d="M254.01,109.66c-3.86,2.4-8.49,6.11-11.13,9.56l1.1-7.51l-3.96-6.47
					C243.8,107.39,249.52,108.97,254.01,109.66z"/>
			</g>
		</g>
	</g>
	<g>
		<path class="st3" d="M36.43,38.84c-0.61,0.38-1.22,0.77-1.84,1.13c-0.73,0.42-1.14,1.03-1.29,1.86c-0.41,2.31-1.51,4.24-3.24,5.84
			c-4.08,3.76-10.85,3.37-14.44-0.86c-3.65-4.3-3.36-10.37,0.79-14.18c2.75-2.52,6.03-3.26,9.64-2.29c0.95,0.26,1.76,0.19,2.58-0.36
			c1.15-0.76,2.34-1.45,3.51-2.18c0.94-0.59,1.85-0.58,2.75,0.08c0.11,0.08,0.32,0.09,0.45,0.05c1.37-0.43,2.66,0.03,3.42,1.25
			c0.43,0.69,0.86,1.38,1.28,2.08c0.69,1.15,0.52,2.55-0.43,3.49c-0.2,0.2-0.22,0.35-0.18,0.61c0.14,0.95-0.18,1.73-1,2.26
			C37.77,38.03,37.09,38.43,36.43,38.84z M28.43,31.59c-0.88,0.34-1.73,0.31-2.6,0.04c-3.68-1.12-7.68,0.29-9.85,3.45
			c-2.2,3.19-2.14,7.39,0.26,10.41c2.27,2.86,5.31,3.99,8.88,3.24c3.54-0.74,5.8-3,6.74-6.5c0.28-1.06,0.46-2.14,1.35-2.89
			C31.6,36.74,30.03,34.19,28.43,31.59z M34.33,38.59c1.17-0.72,2.31-1.41,3.43-2.12c0.44-0.28,0.51-0.78,0.2-1.28
			c-1.22-2-2.45-3.99-3.69-5.99c-0.35-0.57-0.81-0.66-1.4-0.3c-0.59,0.36-1.17,0.72-1.76,1.08c-0.5,0.31-1,0.62-1.52,0.94
			C31.18,33.49,32.74,36.02,34.33,38.59z M38.69,33.81c0.49-0.57,0.6-1.16,0.28-1.74c-0.45-0.82-0.95-1.62-1.47-2.39
			c-0.38-0.56-1.1-0.72-1.64-0.45C36.8,30.74,37.73,32.25,38.69,33.81z"/>
		<path d="M22.79,41.24c0.33-0.35,0.64-0.69,0.95-1.01c1.17-1.18,2.34-2.36,3.52-3.52c0.45-0.44,1.03-0.45,1.39-0.06
			c0.36,0.38,0.34,0.9-0.09,1.34c-1.69,1.71-3.39,3.41-5.09,5.1c-0.51,0.51-0.96,0.5-1.48-0.01c-1.12-1.1-2.23-2.22-3.33-3.34
			c-0.47-0.48-0.51-0.99-0.13-1.39c0.38-0.4,0.95-0.37,1.44,0.11c0.77,0.75,1.51,1.51,2.27,2.27C22.4,40.88,22.56,41.02,22.79,41.24
			z"/>
		<path d="M9.13,34.47L3.18,33.2c-0.62-0.13-1.22,0.26-1.35,0.88l0,0c-0.13,0.62,0.26,1.22,0.88,1.35l5.95,1.27
			c0.62,0.13,1.22-0.26,1.35-0.88l0,0C10.13,35.21,9.74,34.6,9.13,34.47z"/>
		<path d="M16.92,26.85l-3.31-5.11c-0.34-0.53-1.05-0.68-1.58-0.34l0,0c-0.53,0.34-0.68,1.05-0.34,1.58L15,28.09
			c0.34,0.53,1.05,0.68,1.58,0.34l0,0C17.11,28.09,17.26,27.38,16.92,26.85z"/>
		<path d="M6.81,51.79l5.11-3.31c0.53-0.34,0.68-1.05,0.34-1.58l0,0c-0.34-0.53-1.05-0.68-1.58-0.34l-5.11,3.31
			c-0.53,0.34-0.68,1.05-0.34,1.58h0C5.57,51.98,6.28,52.13,6.81,51.79z"/>
		<path d="M21.89,55.18l-1.54,5.89c-0.16,0.61-0.78,0.97-1.39,0.81h0c-0.61-0.16-0.97-0.78-0.81-1.39l1.54-5.89
			c0.16-0.61,0.78-0.97,1.39-0.81h0C21.68,53.95,22.05,54.57,21.89,55.18z"/>
		<path d="M32.19,51.64l3.07,5.25c0.32,0.54,0.14,1.24-0.41,1.56v0c-0.54,0.32-1.24,0.14-1.56-0.41l-3.07-5.25
			c-0.32-0.54-0.14-1.24,0.41-1.56h0C31.18,50.92,31.88,51.1,32.19,51.64z"/>
	</g>
</g>
</svg>
