<?xml version="1.0" encoding="utf-8"?>
<!-- Generator: Adobe Illustrator 27.0.0, SVG Export Plug-In . SVG Version: 6.00 Build 0)  -->
<svg version="1.1" id="Calque_1" xmlns="http://www.w3.org/2000/svg" xmlns:xlink="http://www.w3.org/1999/xlink" x="0px" y="0px"
	 viewBox="0 0 127.75 118.68" style="enable-background:new 0 0 127.75 118.68;" xml:space="preserve">
<style type="text/css">
	.st0{opacity:0.5;}
	.st1{fill:none;stroke:#020203;stroke-width:3;stroke-miterlimit:10;}
	.st2{fill:#020203;}
	.st3{stroke:#020203;stroke-width:0.6266;stroke-miterlimit:10;}
	.st4{stroke:#020203;stroke-width:1.7095;stroke-miterlimit:10;}
	.st5{fill:#E94C4D;}
	.st6{fill:none;stroke:#E94C4D;stroke-width:7;stroke-linecap:round;stroke-miterlimit:10;}
	.st7{fill:none;stroke:#E94C4D;stroke-width:6;stroke-linecap:round;stroke-miterlimit:10;}
	.st8{fill:#E8C11C;}
	.st9{fill:none;stroke:#E8C11C;stroke-width:7;stroke-linecap:round;stroke-miterlimit:10;}
	.st10{fill:none;stroke:#E8C11C;stroke-width:6;stroke-linecap:round;stroke-miterlimit:10;}
	.st11{fill:#72B84C;}
	.st12{fill:none;stroke:#72B84C;stroke-width:7;stroke-linecap:round;stroke-miterlimit:10;}
	.st13{fill:none;stroke:#72B84C;stroke-width:6;stroke-linecap:round;stroke-miterlimit:10;}
	.st14{fill:#61A2D8;}
	.st15{fill:none;stroke:#61A2D8;stroke-width:7;stroke-linecap:round;stroke-miterlimit:10;}
	.st16{fill:none;stroke:#61A2D8;stroke-width:6;stroke-linecap:round;stroke-miterlimit:10;}
</style>
<g class="st0">
	<g>
		<g>
			<path class="st1" d="M-298.27-59.33c20.59,36.21,40.85,46.45,55.69,49.04c30.92,5.4,52.02-19.98,119-48
				c26.64-11.14,49.3-18,64-22"/>
			<g>
				<path class="st2" d="M-302.58-67.29c0.66,4.5,0.83,10.43-0.11,14.67l5.02-5.69l7.5-1.16
					C-294.25-60.97-299.15-64.31-302.58-67.29z"/>
			</g>
		</g>
	</g>
	<g>
		<path class="st3" d="M-55-87.87c0.69-0.2,1.38-0.4,2.08-0.58c0.81-0.21,1.38-0.67,1.75-1.43c1.03-2.11,2.62-3.66,4.72-4.72
			c4.95-2.5,11.36-0.25,13.65,4.8c2.33,5.14,0.38,10.9-4.66,13.42c-3.34,1.67-6.7,1.48-9.9-0.45c-0.84-0.51-1.64-0.66-2.58-0.37
			c-1.31,0.41-2.65,0.75-3.98,1.13c-1.07,0.31-1.94,0.05-2.62-0.84c-0.08-0.11-0.28-0.17-0.42-0.17c-1.43,0.03-2.54-0.76-2.94-2.14
			c-0.23-0.78-0.45-1.56-0.66-2.35c-0.34-1.29,0.2-2.6,1.37-3.24c0.25-0.13,0.31-0.27,0.34-0.53c0.12-0.96,0.65-1.61,1.58-1.89
			C-56.52-87.46-55.76-87.66-55-87.87z M-49.31-78.7c0.94-0.08,1.75,0.18,2.51,0.67c3.23,2.09,7.46,1.84,10.42-0.6
			c2.99-2.46,4.09-6.52,2.61-10.08c-1.4-3.38-4.01-5.29-7.64-5.56c-3.61-0.26-6.41,1.29-8.27,4.39c-0.57,0.94-1.03,1.93-2.09,2.41
			C-50.94-84.53-50.13-81.64-49.31-78.7z M-53.05-87.05c-1.33,0.37-2.61,0.72-3.88,1.1c-0.5,0.15-0.71,0.61-0.55,1.17
			c0.63,2.26,1.26,4.52,1.9,6.77c0.18,0.65,0.6,0.86,1.26,0.68c0.66-0.18,1.33-0.37,1.99-0.56c0.57-0.16,1.13-0.32,1.72-0.48
			C-51.43-81.29-52.23-84.14-53.05-87.05z M-58.56-83.66c-0.63,0.41-0.9,0.95-0.75,1.6c0.2,0.91,0.47,1.82,0.76,2.7
			c0.21,0.64,0.86,1,1.45,0.88C-57.59-80.19-58.07-81.89-58.56-83.66z"/>
		<path d="M-42.93-84.5c0.33-0.35,0.64-0.69,0.95-1.01c1.17-1.18,2.34-2.36,3.52-3.52c0.45-0.44,1.03-0.45,1.39-0.06
			c0.36,0.38,0.34,0.9-0.09,1.34c-1.69,1.71-3.39,3.41-5.09,5.1c-0.51,0.51-0.96,0.5-1.48-0.01c-1.12-1.1-2.23-2.22-3.33-3.34
			c-0.47-0.48-0.51-0.99-0.13-1.39c0.38-0.4,0.95-0.37,1.44,0.11c0.77,0.75,1.51,1.51,2.27,2.27
			C-43.33-84.86-43.17-84.72-42.93-84.5z"/>
		<path d="M-29.96-76.16l5.37,2.86c0.56,0.3,1.25,0.08,1.54-0.47h0c0.3-0.56,0.08-1.25-0.47-1.54l-5.37-2.86
			c-0.56-0.3-1.25-0.08-1.54,0.47v0C-30.72-77.15-30.51-76.46-29.96-76.16z"/>
		<path d="M-39.54-70.98l1.78,5.82c0.18,0.6,0.82,0.94,1.42,0.76l0,0c0.6-0.18,0.94-0.82,0.76-1.42l-1.78-5.82
			c-0.18-0.6-0.82-0.94-1.42-0.76l0,0C-39.39-72.22-39.73-71.58-39.54-70.98z"/>
		<path d="M-22.96-92.18l-5.82,1.78c-0.6,0.18-0.94,0.82-0.76,1.42v0c0.18,0.6,0.82,0.94,1.42,0.76L-22.3-90
			c0.6-0.18,0.94-0.82,0.76-1.42l0,0C-21.73-92.02-22.36-92.36-22.96-92.18z"/>
		<path d="M-36.53-99.58l3.1-5.24c0.32-0.54,1.02-0.72,1.56-0.4h0c0.54,0.32,0.72,1.02,0.4,1.56l-3.1,5.24
			c-0.32,0.54-1.02,0.72-1.56,0.4l0,0C-36.67-98.34-36.85-99.04-36.53-99.58z"/>
		<path d="M-47.41-99.02l-1.51-5.89c-0.16-0.61,0.21-1.23,0.82-1.39l0,0c0.61-0.16,1.23,0.21,1.39,0.82l1.51,5.89
			c0.16,0.61-0.21,1.23-0.82,1.39l0,0C-46.63-98.04-47.26-98.41-47.41-99.02z"/>
	</g>
</g>
<g class="st0">
	<g>
		<g>
			<path class="st1" d="M-258.81,41.62c57-38,89.71-33.72,107-7c11,17,7.9,55.28,32,77c17.48,15.76,44.64,15,67.14,10.85"/>
			<g>
				<path class="st2" d="M-43.81,120.62c-3.86,2.4-8.49,6.11-11.13,9.56l1.1-7.51l-3.96-6.47
					C-54.02,118.35-48.3,119.93-43.81,120.62z"/>
			</g>
		</g>
	</g>
	<g>
		<path class="st3" d="M-261.4,49.8c-0.61,0.38-1.22,0.77-1.84,1.13c-0.73,0.42-1.14,1.03-1.29,1.86c-0.41,2.31-1.51,4.24-3.24,5.84
			c-4.08,3.76-10.85,3.37-14.44-0.86c-3.65-4.3-3.36-10.37,0.79-14.18c2.75-2.52,6.03-3.26,9.64-2.29c0.95,0.26,1.76,0.19,2.58-0.36
			c1.15-0.76,2.34-1.45,3.51-2.18c0.94-0.59,1.85-0.58,2.75,0.08c0.11,0.08,0.32,0.09,0.45,0.05c1.37-0.43,2.66,0.03,3.42,1.25
			c0.43,0.69,0.86,1.38,1.28,2.08c0.69,1.15,0.52,2.55-0.43,3.49c-0.2,0.2-0.22,0.35-0.18,0.61c0.14,0.95-0.18,1.73-1,2.26
			C-260.06,48.99-260.73,49.39-261.4,49.8z M-269.4,42.55c-0.88,0.34-1.73,0.31-2.6,0.04c-3.68-1.12-7.68,0.29-9.85,3.45
			c-2.2,3.19-2.14,7.39,0.26,10.41c2.27,2.86,5.31,3.99,8.88,3.24c3.54-0.74,5.8-3,6.74-6.5c0.28-1.06,0.46-2.14,1.35-2.89
			C-266.22,47.7-267.8,45.15-269.4,42.55z M-263.5,49.55c1.17-0.72,2.31-1.41,3.43-2.12c0.44-0.28,0.51-0.78,0.2-1.28
			c-1.22-2-2.45-3.99-3.69-5.99c-0.35-0.57-0.81-0.66-1.4-0.3c-0.59,0.36-1.17,0.72-1.76,1.08c-0.5,0.31-1,0.62-1.52,0.94
			C-266.64,44.45-265.09,46.98-263.5,49.55z M-259.14,44.77c0.49-0.57,0.6-1.16,0.28-1.74c-0.45-0.82-0.95-1.62-1.47-2.39
			c-0.38-0.56-1.1-0.72-1.64-0.45C-261.03,41.7-260.1,43.21-259.14,44.77z"/>
		<path d="M-275.03,52.2c0.33-0.35,0.64-0.69,0.95-1.01c1.17-1.18,2.34-2.36,3.52-3.52c0.45-0.44,1.03-0.45,1.39-0.06
			c0.36,0.38,0.34,0.9-0.09,1.34c-1.69,1.71-3.39,3.41-5.09,5.1c-0.51,0.51-0.96,0.5-1.48-0.01c-1.12-1.1-2.23-2.22-3.33-3.34
			c-0.47-0.48-0.51-0.99-0.13-1.39c0.38-0.4,0.95-0.37,1.44,0.11c0.77,0.75,1.51,1.51,2.27,2.27
			C-275.43,51.84-275.27,51.98-275.03,52.2z"/>
		<path d="M-288.7,45.43l-5.95-1.27c-0.62-0.13-1.22,0.26-1.35,0.88v0c-0.13,0.62,0.26,1.22,0.88,1.35l5.95,1.27
			c0.62,0.13,1.22-0.26,1.35-0.88v0C-287.69,46.17-288.09,45.56-288.7,45.43z"/>
		<path d="M-280.91,37.81l-3.31-5.11c-0.34-0.53-1.05-0.68-1.58-0.34v0c-0.53,0.34-0.68,1.05-0.34,1.58l3.31,5.11
			c0.34,0.53,1.05,0.68,1.58,0.34l0,0C-280.72,39.05-280.57,38.34-280.91,37.81z"/>
		<path d="M-291.02,62.75l5.11-3.31c0.53-0.34,0.68-1.05,0.34-1.58v0c-0.34-0.53-1.05-0.68-1.58-0.34l-5.11,3.31
			c-0.53,0.34-0.68,1.05-0.34,1.58v0C-292.25,62.94-291.55,63.09-291.02,62.75z"/>
		<path d="M-275.94,66.14l-1.54,5.89c-0.16,0.61-0.78,0.97-1.39,0.81l0,0c-0.61-0.16-0.97-0.78-0.81-1.39l1.54-5.89
			c0.16-0.61,0.78-0.97,1.39-0.81l0,0C-276.14,64.91-275.78,65.53-275.94,66.14z"/>
		<path d="M-265.63,62.6l3.07,5.25c0.32,0.54,0.14,1.24-0.41,1.56v0c-0.54,0.32-1.24,0.14-1.56-0.41l-3.07-5.25
			c-0.32-0.54-0.14-1.24,0.41-1.56l0,0C-266.65,61.88-265.95,62.06-265.63,62.6z"/>
	</g>
</g>
<g class="st0">
	<path class="st4" d="M47.87,94.98c0-1.97-0.05-3.93,0-5.9c0.06-2.29-0.76-4.12-2.48-5.65c-4.79-4.25-7.71-9.57-8.95-15.86
		c-2.93-14.85,7.68-30.03,22.63-32.34c15.22-2.35,28.92,7,31.84,22.09c1.94,10-1.03,18.69-8.45,25.69
		c-1.96,1.85-2.94,3.81-2.86,6.51c0.12,3.76,0.02,7.52,0.05,11.28c0.03,3.03-1.29,5.12-4.12,6.27c-0.34,0.14-0.66,0.61-0.76,0.98
		c-0.96,3.79-3.88,6.13-7.78,6.16c-2.22,0.02-4.44,0.03-6.65,0c-3.65-0.05-6.68-2.43-7.49-5.98c-0.17-0.74-0.49-1.01-1.15-1.29
		c-2.42-1.02-3.75-2.89-3.81-5.55C47.84,99.26,47.87,97.12,47.87,94.98z M76.15,86.75c0.47-2.53,1.75-4.46,3.61-6.09
		c7.86-6.96,10.3-18.25,6.07-27.83c-4.27-9.67-14.13-15.52-24.58-14.26c-9.9,1.2-16.85,6.64-20.21,16
		c-3.34,9.29-1.31,17.78,5.47,24.96c2.06,2.18,4.32,4.12,4.8,7.26C59.64,86.77,67.82,86.76,76.15,86.75z M51.45,90.45
		c0,3.76-0.03,7.39,0.03,11.01c0.02,1.43,1.07,2.3,2.68,2.3c6.39,0.01,12.79,0.01,19.18-0.02c1.83-0.01,2.69-0.94,2.7-2.82
		c0.01-1.88,0-3.76,0-5.64c0-1.61,0-3.21-0.01-4.86C67.79,90.43,59.7,90.44,51.45,90.45z M56.32,107.42
		c0.63,1.96,1.84,3.06,3.65,3.15c2.55,0.13,5.11,0.11,7.66-0.01c1.85-0.08,3.24-1.52,3.38-3.16
		C66.17,107.41,61.33,107.42,56.32,107.42z"/>
	<path d="M60.27,66.62c0.91-0.96,1.73-1.89,2.61-2.76c3.19-3.21,6.38-6.43,9.61-9.61c1.23-1.21,2.8-1.23,3.8-0.17
		c0.98,1.04,0.94,2.47-0.25,3.66c-4.61,4.66-9.24,9.3-13.89,13.92c-1.39,1.38-2.63,1.37-4.03-0.02c-3.05-3.01-6.08-6.06-9.09-9.11
		c-1.28-1.3-1.38-2.71-0.36-3.78c1.04-1.1,2.59-1.01,3.93,0.3c2.09,2.04,4.13,4.13,6.2,6.19C59.19,65.64,59.63,66.02,60.27,66.62z"
		/>
	<path d="M97.03,37.76l11.45-12.01c1.19-1.24,1.14-3.21-0.11-4.4v0c-1.24-1.19-3.21-1.14-4.4,0.11L92.52,33.47
		c-1.19,1.24-1.14,3.21,0.11,4.4l0,0C93.87,39.05,95.84,39.01,97.03,37.76z"/>
	<path d="M103.6,66.75l16.59-0.4c1.72-0.04,3.08-1.47,3.04-3.18v0c-0.04-1.72-1.47-3.08-3.18-3.04l-16.59,0.4
		c-1.72,0.04-3.08,1.47-3.04,3.18v0C100.46,65.44,101.89,66.79,103.6,66.75z"/>
	<path d="M60.08,7.63l0.4,16.59c0.04,1.72,1.47,3.08,3.18,3.04h0c1.72-0.04,3.08-1.47,3.04-3.18L66.3,7.48
		c-0.04-1.72-1.47-3.08-3.18-3.04h0C61.39,4.49,60.04,5.91,60.08,7.63z"/>
	<path d="M30.66,37.84L19.18,25.86c-1.19-1.24-1.15-3.21,0.09-4.4l0,0c1.24-1.19,3.21-1.15,4.4,0.09l11.48,11.99
		c1.19,1.24,1.15,3.21-0.09,4.4l0,0C33.82,39.13,31.85,39.09,30.66,37.84z"/>
	<path d="M24.15,66.85L7.56,66.49c-1.72-0.04-3.08-1.46-3.04-3.18v0c0.04-1.72,1.46-3.08,3.18-3.04l16.59,0.36
		c1.72,0.04,3.08,1.46,3.04,3.18v0C27.29,65.52,25.87,66.89,24.15,66.85z"/>
</g>
<g>
	<g>
		<path class="st5" d="M-533.85-105.04c10.86,0,19.7,8.84,19.7,19.7v61.62c0,10.86-8.84,19.7-19.7,19.7h-61.62
			c-10.86,0-19.7-8.84-19.7-19.7v-61.62c0-10.86,8.84-19.7,19.7-19.7H-533.85 M-533.85-108.04h-61.62c-12.53,0-22.7,10.16-22.7,22.7
			v61.62c0,12.53,10.16,22.7,22.7,22.7h61.62c12.53,0,22.7-10.16,22.7-22.7v-61.62C-511.16-97.88-521.32-108.04-533.85-108.04
			L-533.85-108.04z"/>
	</g>
	<line class="st6" x1="-564.2" y1="-62.38" x2="-564.2" y2="-29.17"/>
	<path class="st7" d="M-590.94-56.84l20.22-20.22c3.32-3.32,8.7-3.32,12.02,0l20.14,20.14"/>
</g>
<g>
	<g>
		<path class="st8" d="M-663.92,25.95c10.86,0,19.7,8.84,19.7,19.7v61.62c0,10.86-8.84,19.7-19.7,19.7h-61.62
			c-10.86,0-19.7-8.84-19.7-19.7V45.65c0-10.86,8.84-19.7,19.7-19.7H-663.92 M-663.92,22.95h-61.62c-12.53,0-22.7,10.16-22.7,22.7
			v61.62c0,12.53,10.16,22.7,22.7,22.7h61.62c12.53,0,22.7-10.16,22.7-22.7V45.65C-641.23,33.11-651.39,22.95-663.92,22.95
			L-663.92,22.95z"/>
	</g>
	<line class="st9" x1="-702.57" y1="76" x2="-669.36" y2="76"/>
	<path class="st10" d="M-697.04,102.73l-20.22-20.22c-3.32-3.32-3.32-8.7,0-12.02l20.14-20.14"/>
</g>
<g>
	<g>
		<path class="st11" d="M-403.78,25.95c10.86,0,19.7,8.84,19.7,19.7v61.62c0,10.86-8.84,19.7-19.7,19.7h-61.62
			c-10.86,0-19.7-8.84-19.7-19.7V45.65c0-10.86,8.84-19.7,19.7-19.7H-403.78 M-403.78,22.95h-61.62c-12.53,0-22.7,10.16-22.7,22.7
			v61.62c0,12.53,10.16,22.7,22.7,22.7h61.62c12.53,0,22.7-10.16,22.7-22.7V45.65C-381.09,33.11-391.25,22.95-403.78,22.95
			L-403.78,22.95z"/>
	</g>
	<line class="st12" x1="-426.39" y1="76.17" x2="-459.6" y2="76.17"/>
	<path class="st13" d="M-431.93,49.44l20.22,20.22c3.32,3.32,3.32,8.7,0,12.02l-20.14,20.14"/>
</g>
<g>
	<g>
		<path class="st14" d="M-533.85,25.95c10.86,0,19.7,8.84,19.7,19.7v61.62c0,10.86-8.84,19.7-19.7,19.7h-61.62
			c-10.86,0-19.7-8.84-19.7-19.7V45.65c0-10.86,8.84-19.7,19.7-19.7H-533.85 M-533.85,22.95h-61.62c-12.53,0-22.7,10.16-22.7,22.7
			v61.62c0,12.53,10.16,22.7,22.7,22.7h61.62c12.53,0,22.7-10.16,22.7-22.7V45.65C-511.16,33.11-521.32,22.95-533.85,22.95
			L-533.85,22.95z"/>
	</g>
	<line class="st15" x1="-565.03" y1="84.57" x2="-565.03" y2="51.36"/>
	<path class="st16" d="M-538.3,79.03l-20.22,20.22c-3.32,3.32-8.7,3.32-12.02,0l-20.14-20.14"/>
</g>
</svg>
