<?xml version="1.0" encoding="utf-8"?>
<!-- Generator: Adobe Illustrator 27.0.0, SVG Export Plug-In . SVG Version: 6.00 Build 0)  -->
<svg version="1.1" id="Calque_1" xmlns="http://www.w3.org/2000/svg" xmlns:xlink="http://www.w3.org/1999/xlink" x="0px" y="0px"
	 viewBox="0 0 16.1 16.82" style="enable-background:new 0 0 16.1 16.82;" xml:space="preserve">
<style type="text/css">
	.st0{fill:#804091;}
</style>
<g>
	<path class="st0" d="M2.86,15.01c-0.63,0-1-0.37-1-1c0-1.18,0-2.36,0-3.55c0.03-1.23-1.82-1.26-1.83-0.04c0,0.98-0.01,1.96,0,2.93
		c-0.18,1.59,0.63,3.46,2.36,3.46h11.35c1.73,0,2.54-1.87,2.36-3.46c0.01-0.98,0-1.96,0-2.93c-0.02-1.22-1.86-1.19-1.83,0.04
		c0,1.18,0,2.36,0,3.55c0,0.63-0.37,1-1,1H2.86z"/>
	<path class="st0" d="M11.14,6.37c0.47-0.46,1.21-0.34,1.49,0.23c0.17,0.36,0.1,0.77-0.2,1.07c-0.94,0.94-1.88,1.88-2.83,2.83
		c-0.65,0.58-1.45,1.92-2.37,1.01C5.95,10.23,4.67,8.95,3.4,7.67C3.01,7.29,3,6.71,3.37,6.35C3.74,5.98,4.31,5.99,4.7,6.38
		c0.69,0.69,1.38,1.38,2.08,2.08c0.09,0.09,0.25,0.02,0.25-0.11c-0.09-3.44,0-3.89-0.03-7.33c0-0.39,0.13-0.7,0.47-0.89
		c0.57-0.33,1.29,0.04,1.36,0.69c0,0.01,0,0.01,0,0.02c0,3.5,0.03,4-0.01,7.5c0,0.13,0.16,0.2,0.25,0.1
		C9.75,7.75,10.44,7.05,11.14,6.37z"/>
</g>
</svg>
