<?xml version="1.0" encoding="utf-8"?>
<!-- Generator: Adobe Illustrator 27.0.0, SVG Export Plug-In . SVG Version: 6.00 Build 0)  -->
<svg version="1.1" id="Calque_1" xmlns="http://www.w3.org/2000/svg" xmlns:xlink="http://www.w3.org/1999/xlink" x="0px" y="0px"
	 viewBox="0 0 95 95" style="enable-background:new 0 0 95 95;" xml:space="preserve">
<style type="text/css">
	.st0{display:none;}
	.st1{fill:#020203;}
</style>
<g>
	<path class="st0" d="M15.64,45.8c10.72-10.34,21.34-20.96,31.68-31.68c0.08,0,0.16,0,0.24,0c3.75,3.64,7.5,7.29,11.25,10.92
		c0-1.67,0-3.54,0-5.5c1.94,0,3.72,0,5.67,0c0.44,4-1.02,8.73,0.8,12.36c4.63,4.7,9.31,9.35,13.85,13.88
		c-1.23,1.24-2.42,2.44-3.65,3.68c-9.15-9.15-18.5-18.5-27.89-27.89c-9.47,9.47-18.82,18.82-28.17,28.17
		c-1.33-1.21-2.56-2.33-3.78-3.45C15.64,46.12,15.64,45.96,15.64,45.8z"/>
	<path class="st1" d="M68.3,46.34c6.93,46.21-48.52,46.15-41.57,0l20.85-20.85L68.3,46.34z M47.33,50.26
		c-12.11,0.05-12.11,18.47,0,18.52C59.44,68.72,59.44,50.31,47.33,50.26z"/>
</g>
</svg>
