<?xml version="1.0" encoding="utf-8"?>
<!-- Generator: Adobe Illustrator 27.0.0, SVG Export Plug-In . SVG Version: 6.00 Build 0)  -->
<svg version="1.1" id="Calque_1" xmlns="http://www.w3.org/2000/svg" xmlns:xlink="http://www.w3.org/1999/xlink" x="0px" y="0px"
	 viewBox="0 0 16.51 16.5" style="enable-background:new 0 0 16.51 16.5;" xml:space="preserve">
<style type="text/css">
	.st0{fill:#804091;}
</style>
<g>
	<path class="st0" d="M0,4.3c0.18-1.36,1.32-2.45,2.72-2.45c1.23-0.01,2.45,0,3.68,0c0.54,0,0.94,0.4,0.95,0.91
		c0,0.51-0.4,0.92-0.94,0.92c-1.18,0.01-2.37,0.02-3.55,0c-0.6-0.01-1.02,0.44-1.02,1.01c0.01,3,0.01,6,0.01,9c0,0.63,0.37,1,1,1
		c3,0,6,0,9,0c0.63,0,1-0.37,1-1c0-1.18,0-2.36,0-3.55c-0.03-1.23,1.82-1.26,1.83-0.04c0,0.98,0.01,1.96,0,2.93
		c0.18,1.59-0.63,3.46-2.36,3.46c-9.95,0,0,0-9.95,0c-1.26,0-2.18-1.19-2.36-2.42C0,10.82,0,7.56,0,4.3z"/>
	<path class="st0" d="M10.11,1.85c-0.66,0-1.1-0.61-0.89-1.22c0.13-0.38,0.47-0.61,0.89-0.61c1.33,0,2.67,0,4,0
		c0.86,0.05,2.38-0.33,2.39,0.96c0,1.81,0,3.61,0,5.42c0,0.55-0.4,0.96-0.92,0.96c-0.52,0-0.92-0.41-0.92-0.96c0-0.98,0-1.96,0-2.94
		c0-0.13-0.16-0.19-0.25-0.1c-2.36,2.49-4.88,4.87-7.29,7.33c-0.27,0.27-0.58,0.4-0.96,0.3c-0.64-0.17-0.88-0.94-0.47-1.45
		c0,0,0.01-0.01,0.01-0.01c2.47-2.48,4.93-4.97,7.43-7.42c0.09-0.09,0.03-0.25-0.1-0.25C12.07,1.85,11.09,1.85,10.11,1.85z"/>
</g>
</svg>
