<?xml version="1.0" encoding="utf-8"?>
<!-- Generator: Adobe Illustrator 27.0.0, SVG Export Plug-In . SVG Version: 6.00 Build 0)  -->
<svg version="1.1" id="Calque_1" xmlns="http://www.w3.org/2000/svg" xmlns:xlink="http://www.w3.org/1999/xlink" x="0px" y="0px"
	 viewBox="0 0 40 40" style="enable-background:new 0 0 40 40;" xml:space="preserve">
<style type="text/css">
	.st0{fill:#804091;}
	.st1{display:none;}
	.st2{display:inline;fill:#EFEDEF;}
	.st3{fill:#EFEDEF;}
</style>
<circle class="st0" cx="20" cy="20" r="20"/>
<g class="st1">
	<path class="st2" d="M12.84,11.51v16.98c0,0.85,0.94,1.37,1.66,0.91l13.43-8.49c0.67-0.42,0.67-1.4,0-1.83L14.5,10.6
		C13.78,10.14,12.84,10.66,12.84,11.51z"/>
</g>
<g>
	<path class="st3" d="M16.3,29.59h-2.38c-0.6,0-1.08-0.48-1.08-1.08V11.49c0-0.6,0.48-1.08,1.08-1.08h2.38
		c0.6,0,1.08,0.48,1.08,1.08v17.03C17.38,29.11,16.89,29.59,16.3,29.59z"/>
	<path class="st3" d="M26.08,29.59H23.7c-0.6,0-1.08-0.48-1.08-1.08V11.49c0-0.6,0.48-1.08,1.08-1.08h2.38
		c0.6,0,1.08,0.48,1.08,1.08v17.03C27.16,29.11,26.67,29.59,26.08,29.59z"/>
</g>
</svg>
