<?xml version="1.0" encoding="utf-8"?>
<!-- Generator: Adobe Illustrator 27.0.0, SVG Export Plug-In . SVG Version: 6.00 Build 0)  -->
<svg version="1.1" id="Calque_1" xmlns="http://www.w3.org/2000/svg" xmlns:xlink="http://www.w3.org/1999/xlink" x="0px" y="0px"
	 viewBox="0 0 1203 381.01" style="enable-background:new 0 0 1203 381.01;" xml:space="preserve">
<style type="text/css">
	.st0{fill:#191D36;}
	.st1{fill:#101323;}
	.st2{fill:#FEEA10;}
	.st3{fill:#FCF190;}
	.st4{fill-rule:evenodd;clip-rule:evenodd;fill:#FEEA10;}
</style>
<path class="st0" d="M0,370.78c74.92-21.36,185.65-43.43,318-32.71c113.83,9.22,119.05,32.6,227,40.88
	c167.09,12.83,217.31-38.38,408-44.97c56.07-1.94,142.43-0.65,250,19.42V0H0V370.78z"/>
<path class="st1" d="M0,287.86c48-18,60.18-22.05,134-32.61c162-23.17,262.49,31.71,531,47.8c93.7,5.61,363.51-15.19,538-47.88V0H0
	V287.86z"/>
<g>
	<g>
		<path class="st2" d="M245.41,192.56c-2.21,5.65-4.46,10.31-10.21,11.63c-6.81,1.57-13.01,0.92-20.7,1.28
			c-3.12,0.37-3.61,0.46-3.64,3.3c-0.16,13.93-0.56,25.78-0.9,39.71c-0.01,0.59-0.17,1.19-0.32,2.15c-3.19,0.22-6.3,0.43-9.77,0.66
			c-0.08-2.1-0.22-3.79-0.21-5.49c0-22.81,0.21-45.62,0.4-68.44c0.08-9.49,0.52-17.79,0.81-27.29c0.08-2.5,1.05-3.45,3.47-3.63
			c9.45-0.7,18.84-0.17,28.31-0.21c5.89-0.03,12.23-0.22,17.63-0.14c5.53,0.08,9.19,0.04,12.76,3.44c1.02,0.97,1.64,2.61,1.92,4.05
			c0.51,2.63-0.52,4.41-3.54,4.65c-14.25,1.13-28.13,0.75-42.67,0.87c-3.11,0.27-5.85-0.63-5.93,2.83
			c-0.19,8.38-0.44,16.15-0.87,24.52c-0.22,4.22,1.58,7.01,5.57,7.16C227.43,193.25,234.68,193.29,245.41,192.56z"/>
		<path class="st2" d="M372.94,257.32c-7.82,0.03-7.2,0.6-7.34-7.46c-0.6-34.16-0.71-68.31-1.44-102.46
			c-0.14-6.69-0.26-6.64,6.48-6.9c2.71-0.11,3.93,0.22,6.6,0.12c2.85-0.1,3.48,0.41,3.44,3.13c-0.31,20.46,0.33,40.03,0.23,60.49
			c-0.07,14.92,0.05,29.85,0.22,44.77C381.23,257.37,381.35,257.36,372.94,257.32z"/>
		<path class="st2" d="M422.31,255.4c-0.11,2.09-1.15,2.52-2.77,2.5l-6.87-0.33c-1.23-0.01-2.33-0.83-2.66-2
			c-0.12-0.41-0.2-0.83-0.2-1.25c-0.02-2.22-6.29-17.31-9.97-27.07c-2.68-7.1-1.91-5.78-4.9-13.47c-0.87-2.23-2.92-6.34-3.22-10.85
			c-0.05-0.78-0.08-1.51,0.07-2.33c0.22-1.22,0.01-2.7,2.43-4.9c0.73-0.67,4.06-2.99,6.36-4.47c5.77-3.73,10.83-12.46,11.2-18.74
			c0.63-10.71,0.54-14.76-0.09-28.47c0-0.05-0.01-0.11-0.01-0.16c-0.32-2.83,0.47-4.07,3.31-4.13c2.09-0.05,4.17-0.13,6.29-0.21
			c1.59-0.06,2.92,1.21,2.92,2.81c0,1.78,0,3.43-0.1,5.07c-0.01,0.09-0.01,0.18,0,0.28c0.41,10.05,0.08,14.26,0.05,21.98
			c-0.08,17.68-7.53,23.95-13.59,29.63c-1.75,1.64-3.56,2.43-4.02,5.05c-0.71,4.04,3.52,15.95,12.43,37.75
			c3.15,7.7,3.46,9.48,3.46,9.74C422.38,253.44,422.37,254.24,422.31,255.4z"/>
		<path class="st2" d="M338.79,226.37c4.24,12.02,8.45,26.81,9.42,29.36c-3.8,0.28-6.91,0.49-10.01,0.75
			c-10.02,0.85-10.36,0.93-12.29-8.68c-2.87-14.36-5.37-28.79-7.72-43.24c-2.8-17.24-5.28-34.53-7.87-51.81
			c-0.1-0.66,0-1.36,0.82-2.29C311.13,150.45,333.74,212.04,338.79,226.37z"/>
		<path class="st2" d="M303.83,152.03c-2.13,10.21-4.42,20.38-6.36,30.62c-3.55,18.74-6.92,37.52-10.31,56.29
			c-0.9,4.97-1.6,9.97-2.5,14.93c-0.15,0.83-0.9,2.16-1.45,2.2c-5.21,0.4-10.44,0.56-16.53,0.83
			c8.48-36.96,21.81-71.15,36.02-105.04C303.07,151.91,303.44,151.98,303.83,152.03z"/>
		<path class="st2" d="M303.54,221.96c-1.49-0.05-2.68-1.28-2.67-2.77c0.03-4.82,0.04-9.46,0.21-14.1c0.13-3.34,2.95-2.15,4.8-2.46
			c1.9-0.33,2.97,0.34,3.1,2.5c0.28,4.78,0.83,9.54,1.04,14.33c0.03,0.81-1.04,2.33-1.73,2.4C306.7,222.02,305.1,222,303.54,221.96z
			"/>
		<path class="st2" d="M395.82,140.69c5-0.13,5.79,0.51,5.87,4.78c0.13,7.47,0.12,7.41-6.61,7.69c-2.87,0.12-5.03,0.12-4.93-3.85
			C390.36,139.69,389.41,141,395.82,140.69z"/>
	</g>
	<path class="st3" d="M653.97,134.56c-1.62,5.5-0.19,9.85,2.16,14c1.89,3.35,4.53,5.61,8.5,6.33c13.98,2.54,25.04-2.59,32.43-14.99
		c6.31-10.59,8.47-21.95,6.77-34.12c-0.99-7.12-4.9-12.46-10.33-16.79c-14-11.18-29.97-14.9-47.18-10.53
		c-15.23,3.86-36.09,23.44-36.06,45.68c0.02,12.86,1.58,25.41,4.65,37.83c2.07,8.4,3.6,17.01,6.58,25.08
		c3.76,10.18,8.7,19.93,13.27,29.81c1.27,2.74,3.05,5.25,4.6,7.86c-0.23,0.21-0.48,0.42-0.71,0.64c-1.12-1.26-2.31-2.46-3.35-3.78
		c-6.73-8.45-13.26-17.07-20.19-25.35c-8.17-9.77-18.2-17.56-28.25-25.26c-6.72-5.15-13.6-10.09-20.44-15.09
		c-1.37-1-2.85-1.84-4.78-2.25c0.72,0.89,1.44,1.78,2.16,2.68c12.64,15.83,23.43,32.78,28.8,52.5c4.91,18,5.02,35.94-3.65,53.11
		c-6.25,12.38-15.16,22.15-28.6,26.63c-13.17,4.39-26.58,5.14-39.27-1.54c-10.97-5.77-18.6-15.03-21.53-27.01
		c-4.38-17.94-3.98-33.93,5.56-50.12c7.59-12.88,28.87-19.56,40.32-13.94c2.74,1.35,5.63,3.31,7.3,5.77
		c3.73,5.51,6.63,11.72,4.97,18.59c-1.37,5.69-4.71,10.4-10.26,13.03c-2.2,1.03-4.59,1.62-6.34-0.82c-1.63-2.28-2.09-4.6,0.33-6.79
		c0.74-0.67,1.27-1.6,1.81-2.45c5.51-8.72,0.24-13.01-7.31-13.83c-9.99-1.07-25.31,5.73-28.38,18.62
		c-2.77,11.61-4.02,26.33,0.67,34.33c3.97,7.71,8.9,13.62,16.74,17.94c2.33,1.28,8.58,2.47,10.71,2.57
		c11.06,0.54,17.57-0.08,27.92-4.98c9.65-4.57,15.35-10.47,17.5-20.67c2.38-11.3,3.71-22.83,2.08-34.38
		c-2.71-19.2-10.27-36.16-22.77-51.26c-9.9-11.96-21.44-21.45-34.94-28.77c-2.83-1.53-6.04-2.39-9.07-3.57
		c-2.63-1.02-5.25-2.07-7.8-3.81c0.59-0.14,1.18-0.39,1.77-0.39c20.65-0.09,40.96,2.58,60.6,8.9c10.04,3.23,19.87,7.41,28.47,13.84
		c1.61,1.21,3.08,2.62,5.26,3.65c-1.54-3.75-2.85-7.61-4.67-11.21c-3.47-6.92-4.92-14.21-4.84-21.88
		c0.08-8.36,0.15-16.71,2.48-24.87c2.9-10.15,8.33-18.7,16.57-25.12c11.61-9.04,25.18-12.84,39.76-13.9
		c9.4-0.68,19.09-0.15,27.98,2.84c7.76,2.61,15.31,5.98,20.53,9.98c8.74,6.7,12.56,11.57,16.67,21.77
		c3.23,9.01,3.07,18.33,0.52,26.94c-1.5,5.1-3.96,15.25-13.16,24.98c-5.77,6.11-12.25,11.08-20.03,14.23
		c-6.38,2.57-13.05,3.8-19.99,3.74c-13.9-0.11-19.97-9.76-20.41-20.84C645.89,142.93,648.46,138.1,653.97,134.56z"/>
	<g>
		<path class="st4" d="M816.79,141.12c-1.08,2.21-2.33,4.64-3.28,6.64c-1.54,3.25-3.09,6.5-4.65,9.73
			c-3.71,7.66-6.51,14.08-10.95,22.75c-4.64,9.08-7,14.33-10.43,21.53c-2.98,6.26-9.19,18.65-12.11,24.93
			c-1.44,3.09-2.78,6.23-4.21,9.33c-0.36,0.79-1.05,1.43-1.43,2.22c-0.07-0.01-0.07-0.01-0.13-0.02c-0.19-1.36-0.16-2.72-0.14-4.08
			c0.05-6.58,0.16-13.16,0.22-19.74c0.01-0.6,0.1-1.44-0.99-1.58c-0.85-0.1-1.64,0.28-2.11,1.01c-1.17,1.81-1.96,3.06-2.92,4.67
			c-2.68,4.5-3.89,6.59-5.74,10c-6.27,11.57-13.11,23.17-19.36,34.75c-0.42,0.78-1.2,1.39-1.87,2c-4.37,3.95-8.99,7.88-13.39,11.79
			c-1.23,1.09-2.31,2.1-3.79,3c0.13-0.38,0.21-0.78,0.38-1.14c3.33-6.99,5.8-11.78,8.72-17.62c6.22-12.39,12.52-24.45,18.91-36.5
			c6.02-11.36,12.01-22.86,18.03-34.23c4.19-7.91,8.19-15.69,12.51-23.54c0.73-1.33,1.62-3.15,2.34-4.48
			c0.37,8.57,0.75,17.59,1.12,26.14c1.73-0.06,2.32-1.13,2.89-2.37c4.87-10.52,9.79-21.02,14.65-31.54c0.65-1.41,1.52-2.46,2.8-3.42
			c2.12-1.6,3.68-2.71,5.64-4.13c1.92-1.39,6.85-4.99,8.88-6.47C816.61,140.6,816.92,140.86,816.79,141.12z"/>
		<path class="st4" d="M864.41,154.51c1.29-3.57,2.31-7.23,3.61-10.8c0.98-2.69,1.98-5.43,3.43-7.87c0.58-0.98,2.35-1.48,3.65-1.78
			c6.72-1.53,11.92-2.15,17.88-3.04c3.79-0.57,7.6-0.8,11.41-1.3c0.36-0.05,0.73-0.17,1.67-0.07c-2.05,2.33-3.85,4.56-5.6,6.6
			c-0.49,0.57-1.01,1.2-1.26,1.89c-2.16,4.63-2.99,7.77-4.43,11.75c-1.21,3.34-2.29,6.87-3.61,10.17c-0.11,0.29-0.63,0.59-0.96,0.59
			c-1.6-0.03-3.21-0.15-4.81-0.24c-1.1-0.07-0.93-0.76-0.68-1.46c0.63-1.78,1.98-5.93,3.03-8.92c0.72-2.05,1.33-4.14,2.08-6.47
			c-1.58,0.1-2.64,0.2-3.93,0.27c-3.16,0.15-6.3,0.41-9.2,1.8c-0.62,0.3-1.27,0.94-1.5,1.57c-3.02,8.12-6.07,16.24-8.9,24.43
			c-2.59,7.8-4.4,13.61-6.59,20.42c-0.99,3.06-2.05,6.09-2.97,9.17c-0.34,1.14-0.35,2.36-0.51,3.55c0.22,0.1,0.2,0.09,0.42,0.19
			c2.45-2.74,5.89-2.61,9.03-3.04c2.56-0.34,3.33-0.28,5.08-0.71c0.63-0.15,1.61-0.99,1.84-1.58c1-2.47,1.83-5.01,2.83-7.83
			c-2.94,0.34-5.59,0.64-8.59,0.98c0.5-1.53,0.88-2.67,1.26-3.8c0.77-2.26,1.59-4.5,2.29-6.79c0.35-1.15,1.03-1.47,2.14-1.46
			c2,0.02,4.02,0.1,5.98-0.18c1.42-0.2,2.93-0.73,4.12-1.52c1.46-0.97,3.1-2.6,4.73-4.12c-0.17,0.98-1.14,3.44-1.34,4.03
			c-1.91,5.47-3.43,9.32-5.3,14.81c-1.65,4.83-3.17,9.71-4.75,14.57c-0.17,0.51-0.32,1.01-0.42,1.36
			c-3.44,0.65-6.73,1.28-10.02,1.87c-3.3,0.6-6.62,1.12-9.92,1.76c-0.78,0.15-1.63,0.46-2.21,0.97
			c-6.06,5.26-11.34,11.24-15.83,17.9c-1.59,2.36-3.25,4.83-4.73,7.32c-0.1,0.17-0.38,0.04-0.3-0.16c0.85-2.3,1.86-4.85,2.73-7.15
			c2.1-5.79,3.03-7.46,4.85-12.63c0.82-2.08,2.32-5.9,3.13-7.98c1.6-4.13,3.09-8.29,4.66-12.43c2.62-6.92,5.35-13.8,7.87-20.75
			C857.93,172.42,862.25,160.48,864.41,154.51z"/>
		<path class="st4" d="M999.6,139.23c0.03-0.11-0.06-0.22-0.18-0.21c-3.1,0.19-5.69,0.35-8.28,0.51c-3.89,0.22-7.78,0.47-11.67,0.63
			c-0.54,0.02-1.38-0.24-1.59-0.64c-2.01-3.73-3.92-7.51-5.97-11.5c-0.06-0.11,0.02-0.24,0.14-0.25c13.5-0.79,26.74-1.56,40.42-2.37
			c0.11-0.01,0.2,0.1,0.17,0.21c-2.36,10.36-4.67,20.55-6.99,30.74c-0.04,0.16,0.15,0.27,0.27,0.16c1.87-1.63,3.89-3.16,5.8-4.81
			c0.1-0.08,0.25-0.05,0.28,0.07c0.01,0.04,0.03-0.02,0.01,0.01c-2.31,6.88-3.59,12.83-5.06,19.33c-1.63,7.21-3.48,14.37-5.34,21.52
			c-0.29,1.11-0.95,2.27-1.78,3.05c-3.62,3.4-7.36,6.66-11.07,9.98c-0.14,0.13-0.29,0.24-0.59,0.31c-0.12,0.03-0.23-0.09-0.2-0.21
			c3.13-11.86,6.27-23.73,9.4-35.59c0.04-0.16-0.14-0.28-0.27-0.18c-2.23,1.72-4.46,3.45-6.8,5.25c-0.12,0.1-0.31-0.02-0.27-0.18
			C993.25,163.15,996.39,151.31,999.6,139.23z"/>
		<path class="st4" d="M831.92,190.63c-1.7,4.62-3.26,9.29-5.1,13.84c-1.77,4.37-3.83,8.62-5.76,12.93
			c-0.83,1.85-1.64,3.7-2.46,5.54c-0.2,0.01-0.41,0.02-0.61,0.04c-0.08-0.62-0.29-1.27-0.22-1.87c0.35-2.94,0.79-5.88,1.18-8.81
			c1.22-9.08,2.43-18.15,3.63-27.22c0.93-7.05,2.04-14.07,2.68-21.15c0.42-4.64,0.18-9.34,0.16-14.02c0-1.2,0.42-1.93,1.39-2.66
			c3.5-2.63,6.9-5.4,10.35-8.09c0.55-0.44,1.15-0.81,1.73-1.21c0.15,0.07,0.3,0.14,0.46,0.22c-0.1,0.8-0.02,1.69-0.33,2.4
			c-1.46,3.28-3.03,6.52-4.55,9.79c-0.07,0.16-0.08,0.35-0.22,1.01c7.09-5.55,13.85-10.84,20.61-16.13
			c0.13,0.08,0.26,0.16,0.39,0.24c-0.32,0.93-0.56,1.89-0.95,2.78c-2.22,4.97-4.4,9.95-6.73,14.88c-1.77,3.74-3.82,7.34-5.58,11.09
			C842,164.19,834.36,183.99,831.92,190.63z"/>
		<path class="st4" d="M897.34,229.55c-3.19,4.42-5.57,9.36-8.35,14.04c-0.16,0.28-0.79,1.01-1.23,1.18c0.47-1.33,1.4-4.08,1.8-5.43
			c1.62-5.51,3.16-10.08,4.87-15.56c1.43-4.6,2.9-9.33,4.52-14.25c3.99-13.29,7.05-24.42,11.39-40.27c1.47-5.35,2.98-9.94,4.44-15.3
			c1.89-6.95,3.78-13.91,5.66-20.86c0.2-0.74,0.39-1.5,0.58-2.24c0.13-0.03,0.27-0.05,0.4-0.08c0.71,1.95,1.41,3.9,2.15,5.84
			c0.99,2.65,2.04,5.27,3.06,7.9c0.75,1.95,0.39,2.48-0.2,3.72c-1.38,2.94-2.89,5.84-3.99,8.89c-2.38,6.59-4.75,13.2-6.72,19.92
			c-2.19,7.47-3.88,15.08-5.89,22.61c-1.49,5.55-1.95,11.22-2.21,16.91c-0.07,1.63-0.96,2.53-2.06,3.44
			C902.07,222.88,899.19,227,897.34,229.55z"/>
		<path class="st4" d="M933.87,217.24c-0.12,0.17-0.38,0.16-0.48-0.03c-0.22-0.41-0.38-0.69-0.47-0.99
			c-1.12-3.42-2.3-6.83-3.28-10.3c-0.22-0.79-0.02-1.89,0.39-2.63c2.9-5.15,3.65-7.53,5.48-13.08c0.93-2.82,2.46-7.13,3.65-10.99
			c2-6.49,3.55-12.74,4.68-18.92c1.16-6.42,2.04-12.88,3.16-19.3c0.19-1.07,0.77-2.21,1.51-3.02c3.68-4.08,7.61-7.97,10.18-12.91
			c0.9-1.72,1.5-3.58,2.28-5.36c0.09-0.21,0.23-0.39,0.38-0.57c0.13-0.16,0.39-0.13,0.47,0.06c0.12,0.28,0.23,0.55,0.2,0.8
			c-0.11,0.81-0.4,1.6-0.61,2.4c-1.74,6.53-3.86,12.33-5.74,18.81c-1.2,4.15-3.08,10.62-4.2,14.83c-1.69,6.34-2.32,8.93-3.89,14.5
			c-1.8,6.37-3.57,12.96-5.34,19.34c-1.78,6.42-3.83,13.08-5.6,19.5c-0.64,2.3-1.4,4.56-2.13,6.83
			C934.36,216.55,934.15,216.83,933.87,217.24z"/>
		<path class="st4" d="M1040.74,117.1c-1.81,4.4-3.89,8.7-5.89,13.03c-0.15,0.33-0.74,0.64-1.1,0.65c-4.23,0.06-3.99,1.08-5.23,4.63
			c-0.74,2.11-0.57,2.54-3.06,2.66c-2.65,0.13-4.47,0.33-7.44,0.26c-0.91-0.03-1.62,0.07-1.34-1.15c0.83-3.7,1.64-7.41,2.55-11.09
			c0.09-0.35,0.82-0.74,1.29-0.78c2.76-0.25,5.53-0.41,8.29-0.59c2.21-0.15,4.2-0.84,5.77-2.45c1.89-1.95,3.72-3.95,5.56-5.96
			c0.12-0.13,0.81-0.84,1.32-1.41c0.1-0.1,0.25,0,0.2,0.13C1041.33,115.75,1040.88,116.76,1040.74,117.1z"/>
		<path class="st4" d="M916.99,191.59c1.06-3.51,2.05-6.92,3.15-10.28c0.13-0.38,0.93-0.78,1.42-0.77c2.96,0.04,6.28,0.01,9.24,0.11
			c0.99,0.03,1.61-0.08,3.11-0.12c-1.23,3.53-2.29,6.92-3.48,10.02c-0.13,0.35-1.04,0.55-1.6,0.57
			C924.92,191.3,921.01,191.43,916.99,191.59z"/>
	</g>
</g>
</svg>
