<?xml version="1.0" encoding="utf-8"?>
<!-- Generator: Adobe Illustrator 28.0.0, SVG Export Plug-In . SVG Version: 6.00 Build 0)  -->
<svg version="1.1" id="Calque_1" xmlns="http://www.w3.org/2000/svg" xmlns:xlink="http://www.w3.org/1999/xlink" x="0px" y="0px"
	 viewBox="0 0 59.03 48.46" style="enable-background:new 0 0 59.03 48.46;" xml:space="preserve">
<g>
	<path d="M40.6,16.93c0.84,0,1.47,0.32,1.82,1.1c0.34,0.78,0.14,1.47-0.44,2.07c-4.16,4.36-7.51,8.29-11.49,13.08
		c-0.91,0.95-1.96,0.94-2.87-0.01c-3.64-4.86-7.3-8.69-11.45-13.03c-0.59-0.62-0.82-1.31-0.46-2.12c0.35-0.78,0.99-1.09,1.82-1.09
		c2.13,0.01,4.27,0,6.49,0l0-13.56c0-2.18,1.18-3.37,3.35-3.37c1.83,0,1.67-0.01,3.5,0c1.99,0.01,3.22,1.23,3.22,3.21l0,13.71
		L40.6,16.93z"/>
	<path d="M50.36,35.81c0-1.78,0.64-3.16,2.2-4.05c0.42-0.24,0.9-0.36,1.35-0.54c0.83,0,0.66,0,1.49,0c2.9,1.05,3.63,2.09,3.63,5.2
		L59,42.22c0,0.87,0,1.74,0,2.61c-0.07,0.21-0.15,0.42-0.22,0.63c-0.55,1.67-2.06,2.82-3.81,2.9c-0.19,0.01-0.38,0.01-0.57,0.01
		H4.61c-0.19,0-0.38,0-0.57-0.01c-1.75-0.08-3.26-1.23-3.81-2.9c-0.07-0.21-0.14-0.42-0.22-0.63c0-0.87,0-1.74,0-2.61L0,36.42
		c0-3.11,0.73-4.15,3.63-5.2c0.83,0,0.66,0,1.49,0c0.45,0.18,0.93,0.3,1.35,0.54c1.56,0.89,2.2,2.27,2.2,4.05l0.03,4.5l41.62-0.07
		L50.36,35.81z"/>
</g>
</svg>
