<?xml version="1.0" encoding="utf-8"?>
<!-- Generator: Adobe Illustrator 28.0.0, SVG Export Plug-In . SVG Version: 6.00 Build 0)  -->
<svg version="1.1" id="Calque_1" xmlns="http://www.w3.org/2000/svg" xmlns:xlink="http://www.w3.org/1999/xlink" x="0px" y="0px"
	 viewBox="0 0 79.07 47.49" style="enable-background:new 0 0 79.07 47.49;" xml:space="preserve">
<g>
	<path d="M79.07,24.7c-0.82,1.19-1.55,2.46-2.47,3.57C71.66,34.29,65.88,39.3,58.9,42.84c-4.77,2.41-9.79,3.95-15.13,4.46
		c-10.36,0.98-19.73-1.77-28.31-7.49C9.89,36.09,5.24,31.4,1.19,26.1c-1-1.31-1-2.72-0.01-4.03c4.67-6.12,10.13-11.38,16.8-15.29
		c5.52-3.24,11.43-5.3,17.82-5.9C45.12,0,53.72,2.16,61.72,6.9c6.61,3.91,12.02,9.16,16.64,15.24c0.3,0.4,0.48,0.89,0.71,1.34
		C79.07,23.89,79.07,24.29,79.07,24.7z M39.92,40.6c9.25-0.14,16.45-7.6,16.35-16.96c-0.09-8.81-7.73-16.2-16.62-16.07
		c-9.35,0.14-16.51,7.53-16.42,16.95C23.32,33.37,30.97,40.74,39.92,40.6z"/>
	<path d="M49.84,24.01c-0.04,5.54-4.61,10.03-10.17,9.98c-5.42-0.05-9.84-4.58-9.81-10.06c0.03-5.51,4.64-9.98,10.22-9.93
		C45.46,14.06,49.88,18.59,49.84,24.01z"/>
</g>
</svg>
