<?xml version="1.0" encoding="utf-8"?>
<!-- Generator: Adobe Illustrator 28.0.0, SVG Export Plug-In . SVG Version: 6.00 Build 0)  -->
<svg version="1.1" id="Calque_1" xmlns="http://www.w3.org/2000/svg" xmlns:xlink="http://www.w3.org/1999/xlink" x="0px" y="0px"
	 viewBox="0 0 1172 473.89" style="enable-background:new 0 0 1172 473.89;" xml:space="preserve">
<style type="text/css">
	.st0{fill:none;stroke:#456BAF;stroke-width:9;}
	.st1{fill:#6EB52C;}
	.st2{fill:none;stroke:#000000;stroke-width:9;}
</style>
<polyline class="st0" points="659.52,465.6 659.52,366.45 547.88,366.45 547.88,465.6 "/>
<path class="st1" d="M291.76,88.12c11.36,0,20.48,1.92,26.88,6.72c6.24,4.64,10.4,12,10.4,22.56c0,20.64-15.68,30.72-31.2,32.8
	c-2.4,0.16-5.44,0.16-7.2,0l-11.84-3.04v25.12c0,13.6,1.44,14.4,15.84,15.36v4.48h-43.36v-4.48c12.8-0.96,14.08-2.24,14.08-15.52
	v-64c0-14.08-1.28-14.72-13.12-15.52v-4.48L291.76,88.12L291.76,88.12z M278.8,141.88c2.08,0.8,6.4,1.92,11.68,1.92
	c10.4,0,23.2-5.6,23.2-25.92c0-17.28-11.04-24.64-24.16-24.64c-4.48,0-7.84,0.8-8.96,1.92c-1.28,1.12-1.76,3.04-1.76,7.52V141.88z"
	/>
<g>
	<path class="st1" d="M405.53,155.97c0,25.76-18.88,38.08-34.72,38.08c-21.92,0-35.04-17.6-35.04-35.36
		c0-26.4,20.48-38.4,35.04-38.4C390.65,120.29,405.53,136.13,405.53,155.97z M350.65,153.57c0,20.16,8.8,35.2,21.92,35.2
		c9.92,0,18.08-7.36,18.08-29.28c0-18.72-7.52-33.92-21.44-33.92C359.29,125.57,350.65,135.49,350.65,153.57z"/>
	<path class="st1" d="M412.72,192.13v-4.16c10.08-0.96,11.52-1.92,11.52-12.48V99.81c0-10.88-0.96-11.36-11.04-12.16v-3.84
		c8.32-0.96,18.24-3.68,23.68-5.6v97.28c0,10.56,1.28,11.52,11.52,12.48v4.16H412.72L412.72,192.13z"/>
	<path class="st1" d="M526.16,126.2c-8.48,1.28-9.92,2.56-14.24,11.68c-4,8.48-8.96,21.76-20,48.16
		c-10.72,25.6-14.24,34.72-16.48,43.36c-0.8,3.04-2.88,3.84-5.12,3.84c-4.48,0-9.12-3.84-9.12-7.68c0-2.56,1.44-4,4.16-5.76
		c4.96-3.2,8.16-7.2,11.84-14.24c3.04-5.6,4.32-8.96,4.96-11.04c0.8-2.4,0.8-4.48-0.16-7.2c-6.4-18.24-13.6-37.6-18.4-48.96
		c-3.36-8.8-4.96-10.88-13.76-12.16v-4h32.48v4c-7.36,1.28-8.16,2.88-6.08,8.8l14.56,40.16c4.48-10.88,11.36-29.76,14.72-39.84
		c1.92-6.08,0.8-7.84-8.32-9.12v-4h28.96V126.2L526.16,126.2z"/>
</g>
<g>
	<path class="st1" d="M564.89,122.69c2.88-1.6,5.92-2.4,7.84-2.4c17.76,0,28.32,14.4,28.32,30.24c0,24.16-19.04,39.68-39.84,43.52
		c-4.64-0.16-8.96-1.76-11.04-2.88v20.96c0,12.16,1.12,12.96,13.6,14.08v4.32h-37.92v-4.32c10.24-0.96,11.68-1.92,11.68-12.48
		v-72.32c0-10.4-0.64-10.72-10.56-12v-3.84c6.72-1.12,15.68-3.84,23.2-6.88v12.64L564.89,122.69z M550.17,179.97
		c3.52,3.68,9.6,6.24,15.04,6.24c13.44,0,22.4-11.52,22.4-29.6c0-17.12-9.76-26.72-21.44-26.72c-5.12,0-11.68,3.52-16,6.72V179.97z"
		/>
	<path class="st1" d="M663.44,194.05c-2.4,0-5.76-1.44-7.52-3.04c-2.08-2.24-3.04-4.48-3.84-7.2c-6.4,4.32-14.08,10.24-18.88,10.24
		c-11.36,0-19.2-9.44-19.2-19.52c0-7.84,4.16-12.8,12.96-15.84c9.6-3.2,21.28-7.52,24.8-10.4v-2.88c0-11.52-5.44-18.08-13.44-18.08
		c-3.2,0-5.6,1.28-7.2,3.2c-2.08,2.08-3.52,5.6-4.8,10.56c-0.64,2.56-2.4,3.68-4.64,3.68c-2.88,0-7.04-3.2-7.04-6.88
		c0-2.4,2.08-4.16,5.12-6.4c4.48-3.2,14.88-9.44,24-11.2c4.8,0,9.6,1.44,13.12,4.32c5.6,4.64,7.2,11.2,7.2,19.52v29.76
		c0,7.2,2.88,9.6,5.6,9.6c1.92,0,4.16-0.8,5.76-1.76l1.6,4.16L663.44,194.05L663.44,194.05z M651.76,153.73
		c-3.36,1.76-11.04,5.12-14.4,6.72c-6.24,2.88-9.76,5.92-9.76,11.68c0,8.32,6.4,12.32,11.36,12.32c4.16-0.16,9.76-2.88,12.8-5.76
		L651.76,153.73L651.76,153.73z"/>
</g>
<path class="st1" d="M716.72,122.69c2.88-1.6,5.92-2.4,7.84-2.4c17.76,0,28.32,14.4,28.32,30.24c0,24.16-19.04,39.68-39.84,43.52
	c-4.64-0.16-8.96-1.76-11.04-2.88v20.96c0,12.16,1.12,12.96,13.6,14.08v4.32h-37.92v-4.32c10.24-0.96,11.68-1.92,11.68-12.48v-72.32
	c0-10.4-0.64-10.72-10.56-12v-3.84c6.72-1.12,15.68-3.84,23.2-6.88v12.64L716.72,122.69z M702,179.97c3.52,3.68,9.6,6.24,15.04,6.24
	c13.44,0,22.4-11.52,22.4-29.6c0-17.12-9.76-26.72-21.44-26.72c-5.12,0-11.68,3.52-16,6.72V179.97z"/>
<g>
	<path class="st1" d="M762,192.13v-4.16c10.08-0.96,11.2-1.92,11.2-12.8v-32.96c0-9.92-0.48-10.56-10.08-12.16v-3.84
		c8.16-1.28,15.68-3.36,22.72-6.24v55.2c0,10.88,1.12,11.84,11.36,12.8v4.16H762L762,192.13z M770.48,98.21
		c0-4.8,3.84-8.32,8.16-8.32s8,3.52,8,8.32c0,4.32-3.52,8.16-8.16,8.16C774.32,106.37,770.48,102.53,770.48,98.21z"/>
	<path class="st1" d="M862.95,178.53c-10.08,12.64-21.12,15.52-26.08,15.52c-19.68,0-31.2-16-31.2-34.08c0-11.04,4-20.8,10.56-28
		c6.56-7.36,15.2-11.68,23.52-11.68c13.28,0,24,11.84,24,24.32c0,3.2-0.8,4.48-3.68,5.12c-2.72,0.48-22.72,2.08-41.76,2.72
		c0.16,21.76,12.64,30.72,23.84,30.72c6.4,0,12.48-2.56,18.24-8L862.95,178.53L862.95,178.53z M819.11,145.89
		c8.96,0,17.76-0.16,27.04-0.48c2.88,0,3.84-0.96,3.84-3.2c0.16-8.32-5.28-16-14.08-16C828.55,126.21,821.51,132.93,819.11,145.89z"
		/>
	<path class="st1" d="M897.03,137.25c4.8-8,11.68-16.96,19.36-16.96c5.44,0,9.28,4.16,9.28,8c0,3.2-2.08,6.4-5.12,7.84
		c-1.92,0.8-3.36,0.64-4.32-0.32c-2.24-2.4-4.16-3.36-6.72-3.36c-4.16,0-9.28,4.8-12.8,13.76v29.28c0,10.56,0.8,11.52,13.12,12.48
		v4.16h-36.8v-4.16c9.92-0.96,11.04-1.92,11.04-12.48v-33.12c0-10.56-0.8-11.2-9.92-12.48v-3.52c7.84-1.28,14.88-3.2,22.56-6.56
		v17.44L897.03,137.25L897.03,137.25z"/>
</g>
<line class="st2" x1="449.7" y1="366.45" x2="757.7" y2="366.45"/>
<g>
	<path d="M377.99,310.44l-1.74-23.67c-0.38,3.98-1.08,7.7-2.11,11.15c-1.03,3.45-2.19,6.12-3.49,8s-2.64,3.2-4,3.97
		s-2.71,1.14-4.04,1.14c-0.81,0-1.42-0.17-1.86-0.49c-0.43-0.33-0.65-0.73-0.65-1.2c0-0.4,0.16-0.74,0.47-1.03s0.71-0.44,1.2-0.44
		c0.35,0,0.86,0.08,1.52,0.23c0.6,0.15,1.1,0.23,1.49,0.23c0.69,0,1.41-0.26,2.15-0.77c1.13-0.76,2.24-2.13,3.35-4.09
		s2.09-4.71,2.97-8.23c0.87-3.52,1.42-6.96,1.64-10.31c-3.33,0-6.03,0.83-8.11,2.48c-1.66,1.32-2.48,2.79-2.48,4.42
		c0,0.72,0.39,1.58,1.17,2.59c0.42,0.54,0.63,0.98,0.63,1.32c0,0.38-0.12,0.7-0.36,0.94s-0.53,0.37-0.86,0.37
		c-0.57,0-1.07-0.32-1.51-0.97c-0.6-0.86-0.9-1.89-0.9-3.08c0-1.67,0.56-3.27,1.68-4.8c1.12-1.53,2.67-2.7,4.66-3.49
		c1.98-0.8,4.31-1.2,6.98-1.22c1.44,0,2.59-0.13,3.45-0.4c-0.05,1.32-0.07,2.03-0.06,2.13c-0.01,0.13,0.01,0.43,0.06,0.9l1.28,16.73
		c3.54-6.18,7.01-11.27,10.39-15.26c2.4-2.83,4.49-4.74,6.27-5.73c-1.02,2.78-2.11,6.45-3.27,11.01l-2.7,10.55
		c-0.15,0.59-0.35,1.44-0.6,2.57l-0.53,2.35c1.11,0.26,2.13,0.4,3.06,0.4c0.75,0,1.55-0.09,2.4-0.26l-0.29,1.27
		c-0.75,0.13-1.33,0.2-1.74,0.2c-0.6,0-1.47-0.07-2.59-0.2c-0.92-0.12-1.74-0.18-2.46-0.18c-0.76,0-1.63,0.15-2.59,0.44
		c0.81-2.11,1.65-4.94,2.53-8.5l1.7-6.72c0.72-2.9,1.34-4.89,1.87-5.98c-1.18,1.33-2.99,3.78-5.44,7.35
		c-1.97,2.87-4.17,6.51-6.61,10.91L377.99,310.44z"/>
	<path d="M410.4,303.98l0.73,0.97c-3.59,3.41-6.67,5.12-9.23,5.12c-1.04,0-1.83-0.35-2.38-1.05c-0.55-0.7-0.82-1.83-0.82-3.38
		c0-3.13,0.95-6.25,2.86-9.36c2.14-3.53,4.69-5.3,7.67-5.3c1.04,0,1.83,0.26,2.38,0.78c0.55,0.52,0.82,1.23,0.82,2.14
		c0,0.95-0.33,1.89-0.99,2.81s-1.84,1.88-3.54,2.88c-0.85,0.48-2.67,1.35-5.45,2.61c-0.13,0.79-0.2,1.55-0.2,2.26
		c0,1.04,0.16,1.77,0.49,2.18c0.33,0.41,0.81,0.62,1.44,0.62c0.6,0,1.26-0.17,1.98-0.51C407.12,306.29,408.54,305.37,410.4,303.98z
		 M402.71,300.79c2.36-1.05,4.13-2.19,5.32-3.41c0.81-0.85,1.21-1.69,1.21-2.53c0-0.63-0.16-1.13-0.49-1.5
		c-0.33-0.37-0.76-0.56-1.29-0.56c-0.54,0-1.07,0.21-1.58,0.62c-0.69,0.54-1.27,1.36-1.74,2.46
		C403.46,297.48,402.99,299.12,402.71,300.79z"/>
	<path d="M420.33,287.63l3.49-1.34l-1.58,6.15h4.55l-0.35,1.56h-4.55l-1.92,7.36c-0.61,2.21-0.91,3.75-0.91,4.61
		c0,0.4,0.08,0.68,0.25,0.86c0.17,0.18,0.4,0.26,0.69,0.26c0.45,0,1.15-0.27,2.09-0.81c1.23-0.72,2.4-1.53,3.52-2.44l0.83,1.01
		c-3.21,2.42-5.35,3.9-6.44,4.44s-1.96,0.81-2.61,0.81c-0.54,0-0.97-0.2-1.29-0.59c-0.32-0.4-0.47-1.04-0.47-1.93
		c0-1.05,0.28-2.67,0.83-4.83l2.24-8.75h-3.56l0.4-1.56h3.56L420.33,287.63z"/>
	<path d="M434.72,287.63l3.49-1.34l-1.58,6.15h4.55l-0.35,1.56h-4.55l-1.92,7.36c-0.61,2.21-0.91,3.75-0.91,4.61
		c0,0.4,0.08,0.68,0.25,0.86c0.17,0.18,0.4,0.26,0.69,0.26c0.45,0,1.15-0.27,2.09-0.81c1.23-0.72,2.4-1.53,3.52-2.44l0.83,1.01
		c-3.21,2.42-5.35,3.9-6.44,4.44s-1.96,0.81-2.61,0.81c-0.54,0-0.97-0.2-1.29-0.59c-0.32-0.4-0.47-1.04-0.47-1.93
		c0-1.05,0.28-2.67,0.83-4.83l2.24-8.75h-3.56l0.4-1.56h3.56L434.72,287.63z"/>
	<path d="M453.86,291.01c1.44,0,2.63,0.57,3.58,1.71s1.43,2.73,1.43,4.77c0,3.25-1.14,6.17-3.43,8.76c-2.29,2.59-4.7,3.88-7.25,3.88
		c-1.57,0-2.83-0.51-3.79-1.54c-0.96-1.03-1.44-2.42-1.44-4.2c0-3.08,0.88-5.92,2.64-8.53
		C447.81,292.63,450.56,291.01,453.86,291.01z M451.99,292.66c-1.25,0-2.45,0.89-3.61,2.67c-1.16,1.78-1.75,4.24-1.75,7.37
		c0,1.9,0.36,3.41,1.08,4.5c0.53,0.81,1.23,1.21,2.11,1.21c1.23,0,2.35-0.76,3.36-2.29c1.29-1.98,1.93-4.43,1.93-7.36
		c0-2.2-0.3-3.76-0.89-4.7C453.63,293.13,452.89,292.66,451.99,292.66z"/>
	<path d="M461.62,296.18l-0.75-0.77c1.88-1.8,3.37-2.99,4.49-3.58c1.11-0.59,2.07-0.88,2.86-0.88c0.31,0,0.55,0.07,0.73,0.2
		s0.26,0.29,0.26,0.46c0,0.13-0.04,0.37-0.11,0.7l-0.99,4.42c1.49-1.66,3.36-3.2,5.62-4.64c1.2-0.75,2.19-1.12,2.96-1.12
		c0.57,0,1.02,0.18,1.34,0.55s0.48,0.89,0.48,1.58c0,0.45-0.07,0.97-0.2,1.54c-0.23,0.95-0.85,3.02-1.84,6.22
		c-0.93,2.99-1.4,4.97-1.4,5.95c0,0.3,0.04,0.53,0.13,0.68s0.21,0.23,0.37,0.23c0.42,0,1.09-0.41,2-1.23
		c0.64-0.59,1.29-1.13,1.93-1.63l0.55,0.79c-1.35,1.49-2.75,2.68-4.2,3.59c-0.92,0.58-1.68,0.87-2.29,0.87c-0.56,0-0.99-0.2-1.3-0.6
		c-0.31-0.4-0.46-1.06-0.46-1.97c0-1.3,0.81-4.55,2.44-9.73c0.5-1.85,0.75-2.92,0.75-3.23c0-0.45-0.27-0.68-0.81-0.68
		c-0.59,0-1.34,0.31-2.26,0.92c-1.38,0.91-2.53,1.98-3.45,3.21c-0.59,0.79-1.08,2.05-1.47,3.78l-1.78,7.68h-3.27
		c0.62-2.2,1.15-4.31,1.6-6.31l1.96-8.36c0.07-0.34,0.11-0.58,0.11-0.73c0-0.4-0.15-0.59-0.44-0.59c-0.23,0-0.57,0.16-1.01,0.47
		C463.26,294.57,462.41,295.3,461.62,296.18z"/>
	<path d="M491.3,291.01c1.3,0,2.31,0.25,3.02,0.76c0.71,0.5,1.07,1.09,1.07,1.75c0,0.4-0.15,0.74-0.45,1.03s-0.66,0.44-1.09,0.44
		c-0.28,0-0.52-0.06-0.73-0.19s-0.5-0.44-0.88-0.93c-0.72-0.95-1.43-1.43-2.13-1.43c-0.6,0-1.13,0.23-1.59,0.69
		c-0.46,0.46-0.69,1.04-0.69,1.72c0,0.6,0.15,1.18,0.44,1.74c0.29,0.56,1.03,1.47,2.22,2.73c1.63,1.73,2.44,3.37,2.44,4.92
		s-0.66,2.91-1.98,4.07c-1.32,1.16-3.02,1.74-5.1,1.74c-1.74,0-3.04-0.36-3.89-1.07c-0.85-0.71-1.27-1.59-1.27-2.63
		c0-0.51,0.16-0.94,0.48-1.27s0.72-0.51,1.19-0.51c0.41,0,0.76,0.14,1.05,0.41s0.44,0.59,0.44,0.96c0,0.15-0.01,0.34-0.03,0.57
		c-0.01,0.19-0.01,0.35-0.01,0.48c0,0.48,0.2,0.89,0.61,1.23c0.39,0.34,0.93,0.51,1.62,0.51c0.79,0,1.48-0.14,2.08-0.41
		c0.6-0.27,1.07-0.68,1.4-1.23c0.34-0.55,0.5-1.09,0.5-1.64c0-0.53-0.16-1.05-0.47-1.58c-0.32-0.53-1.02-1.4-2.12-2.61
		c-1.52-1.7-2.29-3.33-2.29-4.89c0-1.43,0.58-2.69,1.74-3.76S489.51,291.01,491.3,291.01z"/>
	<path d="M515.08,304.2l0.75,0.79c-1.14,1.29-2.49,2.46-4.05,3.53c-1.56,1.06-2.85,1.59-3.86,1.59c-0.45,0-0.83-0.17-1.12-0.52
		c-0.29-0.34-0.44-0.82-0.44-1.42c0-1.17,0.45-3.6,1.36-7.29l2.37-9.65c0.86-3.49,1.59-5.82,2.17-7.01
		c0.91-1.79,2.19-3.19,3.85-4.18c1.66-0.99,3.41-1.49,5.26-1.49c0.63,0,1.12,0.15,1.48,0.45s0.54,0.67,0.54,1.1
		c0,0.47-0.18,0.86-0.53,1.16c-0.35,0.3-0.86,0.45-1.53,0.45c-0.44,0-1.06-0.07-1.86-0.22c-0.7-0.12-1.35-0.18-1.95-0.18
		c-0.6,0-1.05,0.12-1.36,0.37c-0.42,0.35-0.81,1.09-1.15,2.21c-0.34,1.12-0.9,3.34-1.67,6.65l-2.19,9.21
		c-1.08,4.61-1.63,7.02-1.63,7.23c0,0.47,0.17,0.7,0.51,0.7c0.32,0,0.79-0.19,1.41-0.57C512.64,306.36,513.86,305.38,515.08,304.2z"
		/>
	<path d="M531.71,290.64l1.45-0.31l-1.65,5.56c-0.66,2.21-1.28,4.76-1.87,7.65c-0.32,1.57-0.48,2.58-0.48,3.03s0.18,0.68,0.55,0.68
		c0.23,0,0.61-0.15,1.12-0.46c0.91-0.54,1.78-1.22,2.61-2.02l0.7,0.86c-1.67,1.52-2.74,2.45-3.21,2.77
		c-0.94,0.64-1.83,1.12-2.68,1.43c-0.56,0.21-1.1,0.31-1.63,0.31c-0.38,0-0.67-0.09-0.86-0.26s-0.29-0.43-0.29-0.77
		c0-0.22,0.06-0.52,0.18-0.9l0.88-2.99c-1.26,1.51-2.76,2.81-4.5,3.89c-1.07,0.67-2.05,1.01-2.94,1.01c-0.85,0-1.5-0.3-1.96-0.9
		c-0.62-0.81-0.92-1.86-0.92-3.16c0-1.55,0.41-3.28,1.24-5.19c0.83-1.9,1.94-3.63,3.33-5.19s2.86-2.7,4.39-3.43
		c1.19-0.56,2.71-0.83,4.57-0.83c0.47,0,0.94,0.03,1.43,0.09L531.71,290.64z M528.98,294c-0.79-0.16-1.46-0.24-2-0.24
		c-1.32,0-2.47,0.36-3.45,1.09c-0.98,0.72-1.89,2.03-2.74,3.91c-0.84,1.88-1.26,3.76-1.26,5.64c0,1,0.17,1.71,0.51,2.15
		s0.78,0.66,1.32,0.66c1.01,0,2.09-0.55,3.25-1.64s2.01-2.66,2.55-4.71L528.98,294z"/>
	<path d="M546.1,296.07l-0.66-0.88c1.45-1.45,2.83-2.52,4.13-3.21c1.31-0.69,2.34-1.03,3.09-1.03c0.31,0,0.54,0.07,0.69,0.2
		s0.23,0.31,0.23,0.55c0,0.29-0.12,0.86-0.35,1.69c-0.34,1.23-0.57,2.2-0.7,2.92c3.51-3.57,6.19-5.36,8.04-5.36
		c0.48,0,0.85,0.13,1.1,0.4s0.37,0.68,0.37,1.25c0,0.62-0.22,1.66-0.66,3.14c1.67-1.74,3.12-2.98,4.35-3.7
		c1.23-0.73,2.19-1.09,2.88-1.09c0.62,0,1.09,0.18,1.43,0.53c0.34,0.35,0.51,0.89,0.51,1.63c0,0.44-0.07,0.96-0.22,1.56
		s-0.68,2.43-1.6,5.49c-1.16,3.79-1.74,6.06-1.74,6.79c0,0.5,0.21,0.75,0.62,0.75c0.28,0,0.55-0.09,0.81-0.26
		c0.86-0.62,1.75-1.38,2.66-2.29l0.73,0.79c-0.31,0.25-0.89,0.76-1.74,1.54c-1.17,1.05-1.98,1.71-2.42,1.98
		c-0.85,0.5-1.57,0.75-2.15,0.75c-0.44,0-0.83-0.22-1.16-0.65c-0.34-0.43-0.51-1.03-0.51-1.79c0-0.7,0.1-1.53,0.31-2.47
		c0.21-0.94,0.81-3.06,1.8-6.36c0.75-2.48,1.12-3.98,1.12-4.5c0-0.5-0.22-0.75-0.66-0.75c-0.37,0-0.86,0.18-1.47,0.55
		c-1.26,0.76-2.31,1.69-3.16,2.79c-0.59,0.76-1.1,1.97-1.54,3.63c-0.98,3.62-1.71,6.57-2.2,8.85h-3.12l3.27-13.43
		c0.23-0.97,0.35-1.52,0.35-1.67c0-0.23-0.06-0.41-0.18-0.54c-0.12-0.12-0.29-0.19-0.5-0.19c-0.39,0-1.01,0.31-1.84,0.92
		c-1.45,1.04-2.49,2.05-3.13,3.02c-0.64,0.97-1.18,2.46-1.63,4.45l-1.69,7.43h-3.16l2.48-10.48c0.73-3.03,1.1-4.68,1.1-4.94
		c0-0.34-0.13-0.51-0.4-0.51C549.02,293.56,547.86,294.4,546.1,296.07z"/>
	<path d="M588.26,291.58h3.13l-2.07,7.68c-1.21,4.46-1.82,7-1.82,7.61c0,0.28,0.06,0.49,0.2,0.64c0.13,0.15,0.28,0.22,0.44,0.22
		c0.25,0,0.54-0.11,0.88-0.33c0.48-0.34,1.4-1.19,2.75-2.55l0.72,0.81c-2.94,3.06-5.11,4.59-6.5,4.59c-0.47,0-0.87-0.18-1.2-0.54
		c-0.33-0.36-0.49-0.87-0.49-1.53c0-0.76,0.16-1.78,0.48-3.05c-1.3,1.49-2.91,2.81-4.83,3.93c-1.27,0.75-2.38,1.12-3.32,1.12
		c-0.51,0-0.92-0.17-1.21-0.51c-0.29-0.34-0.44-0.87-0.44-1.61c0-0.57,0.07-1.19,0.2-1.85c0.19-0.92,0.67-2.78,1.45-5.57
		c0.98-3.53,1.47-5.65,1.47-6.36c0-0.41-0.15-0.62-0.44-0.62c-0.26,0-0.62,0.14-1.08,0.41s-1.23,0.93-2.33,1.97l-0.97-0.77
		c1.96-1.76,3.46-2.91,4.49-3.46c1.03-0.55,1.86-0.82,2.49-0.82c0.35,0,0.64,0.13,0.86,0.39s0.33,0.66,0.33,1.2
		c0,1.01-0.53,3.5-1.58,7.46c-0.94,3.56-1.41,5.6-1.41,6.09c0,0.31,0.1,0.57,0.3,0.79c0.2,0.22,0.41,0.33,0.65,0.33
		c0.82,0,1.98-0.68,3.49-2.03c1.51-1.35,2.5-2.9,2.96-4.62L588.26,291.58z"/>
	<path d="M603.76,291.01c1.3,0,2.31,0.25,3.02,0.76c0.71,0.5,1.07,1.09,1.07,1.75c0,0.4-0.15,0.74-0.45,1.03
		c-0.3,0.29-0.66,0.44-1.09,0.44c-0.28,0-0.52-0.06-0.72-0.19s-0.5-0.44-0.88-0.93c-0.72-0.95-1.43-1.43-2.13-1.43
		c-0.6,0-1.13,0.23-1.59,0.69c-0.46,0.46-0.69,1.04-0.69,1.72c0,0.6,0.15,1.18,0.44,1.74c0.29,0.56,1.03,1.47,2.22,2.73
		c1.63,1.73,2.44,3.37,2.44,4.92s-0.66,2.91-1.98,4.07c-1.32,1.16-3.02,1.74-5.1,1.74c-1.74,0-3.04-0.36-3.89-1.07
		c-0.85-0.71-1.27-1.59-1.27-2.63c0-0.51,0.16-0.94,0.48-1.27s0.72-0.51,1.19-0.51c0.41,0,0.76,0.14,1.05,0.41s0.44,0.59,0.44,0.96
		c0,0.15-0.01,0.34-0.03,0.57c-0.01,0.19-0.01,0.35-0.01,0.48c0,0.48,0.2,0.89,0.61,1.23c0.39,0.34,0.93,0.51,1.62,0.51
		c0.79,0,1.48-0.14,2.08-0.41c0.6-0.27,1.07-0.68,1.4-1.23c0.34-0.55,0.5-1.09,0.5-1.64c0-0.53-0.16-1.05-0.47-1.58
		c-0.32-0.53-1.02-1.4-2.12-2.61c-1.52-1.7-2.29-3.33-2.29-4.89c0-1.43,0.58-2.69,1.74-3.76S601.97,291.01,603.76,291.01z"/>
	<path d="M609.21,296.11l-0.97-0.75c1.46-1.61,2.8-2.76,4-3.44c1.21-0.68,2.24-1.02,3.08-1.02c0.47,0,0.83,0.1,1.08,0.31
		c0.25,0.21,0.37,0.48,0.37,0.83c0,0.42-0.47,2.23-1.42,5.41c-1.55,5.2-2.32,8.33-2.32,9.4c0,0.21,0.05,0.38,0.15,0.52
		c0.1,0.14,0.21,0.21,0.33,0.21c0.47,0,1.67-0.91,3.6-2.72l0.86,0.83c-2.01,1.89-3.47,3.1-4.39,3.63c-0.92,0.53-1.68,0.79-2.26,0.79
		c-0.51,0-0.92-0.16-1.22-0.48c-0.3-0.32-0.45-0.77-0.45-1.34c0-1.83,1.1-6.31,3.3-13.43c0.1-0.34,0.15-0.64,0.15-0.9
		c0-0.29-0.13-0.44-0.4-0.44c-0.29,0-0.63,0.12-1,0.35C611.33,294.1,610.5,294.85,609.21,296.11z M617.84,281.56
		c0.45,0,0.83,0.15,1.12,0.45s0.44,0.68,0.44,1.15c0,0.64-0.22,1.21-0.67,1.7c-0.45,0.49-0.95,0.74-1.5,0.74
		c-0.44,0-0.81-0.15-1.1-0.46s-0.44-0.71-0.44-1.21c0-0.66,0.21-1.22,0.64-1.68C616.75,281.79,617.25,281.56,617.84,281.56z"/>
	<path d="M635.07,290.18h1.51c-0.78,2.3-1.79,6.02-3.05,11.16l-3.8,15.91c-0.06,0.32-0.09,0.62-0.09,0.9c0,0.4,0.15,0.7,0.45,0.91
		c0.3,0.21,1.14,0.42,2.52,0.63l-0.37,1.21c-1.51-0.29-3.05-0.44-4.64-0.44c-1.45,0-3.44,0.15-5.96,0.44l0.29-1.21
		c1.38-0.1,2.35-0.3,2.91-0.59c0.56-0.29,1.02-0.75,1.37-1.36s0.75-1.85,1.21-3.71l2.13-9.05c-1.45,1.68-3.02,3.02-4.7,4.02
		c-1.28,0.76-2.37,1.14-3.3,1.14c-0.73,0-1.36-0.35-1.88-1.04c-0.52-0.7-0.78-1.71-0.78-3.04c0-3.28,1.33-6.62,4-10.03
		c2.67-3.41,5.64-5.11,8.92-5.11c0.69,0,1.52,0.1,2.48,0.31L635.07,290.18z M632.23,293.87c-1.05-0.29-1.98-0.44-2.77-0.44
		c-1.29,0-2.43,0.38-3.44,1.14c-1,0.76-1.91,2.14-2.71,4.14c-0.81,2-1.21,3.96-1.21,5.88c0,0.85,0.19,1.51,0.57,1.98
		s0.86,0.7,1.43,0.7c0.51,0,1.17-0.28,1.96-0.83c1.46-1.03,2.57-2.09,3.32-3.19c0.53-0.76,1.05-2.22,1.58-4.37L632.23,293.87z"/>
	<path d="M652.13,291.58h3.13l-2.07,7.68c-1.22,4.46-1.82,7-1.82,7.61c0,0.28,0.07,0.49,0.2,0.64s0.28,0.22,0.44,0.22
		c0.25,0,0.54-0.11,0.88-0.33c0.48-0.34,1.4-1.19,2.75-2.55l0.73,0.81c-2.94,3.06-5.11,4.59-6.5,4.59c-0.47,0-0.87-0.18-1.2-0.54
		c-0.33-0.36-0.5-0.87-0.5-1.53c0-0.76,0.16-1.78,0.48-3.05c-1.3,1.49-2.91,2.81-4.83,3.93c-1.27,0.75-2.38,1.12-3.32,1.12
		c-0.51,0-0.92-0.17-1.21-0.51c-0.29-0.34-0.44-0.87-0.44-1.61c0-0.57,0.07-1.19,0.2-1.85c0.19-0.92,0.67-2.78,1.45-5.57
		c0.98-3.53,1.47-5.65,1.47-6.36c0-0.41-0.15-0.62-0.44-0.62c-0.26,0-0.62,0.14-1.08,0.41s-1.23,0.93-2.33,1.97l-0.97-0.77
		c1.96-1.76,3.46-2.91,4.49-3.46c1.03-0.55,1.86-0.82,2.49-0.82c0.35,0,0.64,0.13,0.86,0.39c0.22,0.26,0.33,0.66,0.33,1.2
		c0,1.01-0.53,3.5-1.58,7.46c-0.94,3.56-1.41,5.6-1.41,6.09c0,0.31,0.1,0.57,0.3,0.79c0.2,0.22,0.41,0.33,0.65,0.33
		c0.82,0,1.98-0.68,3.49-2.03c1.51-1.35,2.5-2.9,2.96-4.62L652.13,291.58z"/>
	<path d="M669.5,303.98l0.73,0.97c-3.59,3.41-6.67,5.12-9.23,5.12c-1.04,0-1.83-0.35-2.38-1.05c-0.55-0.7-0.82-1.83-0.82-3.38
		c0-3.13,0.95-6.25,2.86-9.36c2.14-3.53,4.69-5.3,7.67-5.3c1.04,0,1.83,0.26,2.38,0.78c0.55,0.52,0.82,1.23,0.82,2.14
		c0,0.95-0.33,1.89-0.99,2.81c-0.66,0.92-1.84,1.88-3.54,2.88c-0.85,0.48-2.67,1.35-5.45,2.61c-0.13,0.79-0.2,1.55-0.2,2.26
		c0,1.04,0.16,1.77,0.49,2.18c0.33,0.41,0.81,0.62,1.44,0.62c0.6,0,1.26-0.17,1.98-0.51C666.23,306.29,667.64,305.37,669.5,303.98z
		 M661.81,300.79c2.36-1.05,4.13-2.19,5.32-3.41c0.81-0.85,1.21-1.69,1.21-2.53c0-0.63-0.16-1.13-0.49-1.5
		c-0.33-0.37-0.76-0.56-1.29-0.56c-0.54,0-1.07,0.21-1.58,0.62c-0.69,0.54-1.27,1.36-1.74,2.46
		C662.56,297.48,662.09,299.12,661.81,300.79z"/>
	<path d="M698.15,290.64l1.45-0.31l-1.65,5.56c-0.66,2.21-1.28,4.76-1.87,7.65c-0.32,1.57-0.48,2.58-0.48,3.03s0.18,0.68,0.55,0.68
		c0.23,0,0.61-0.15,1.12-0.46c0.91-0.54,1.78-1.22,2.62-2.02l0.7,0.86c-1.67,1.52-2.74,2.45-3.21,2.77
		c-0.94,0.64-1.83,1.12-2.68,1.43c-0.56,0.21-1.1,0.31-1.63,0.31c-0.38,0-0.67-0.09-0.86-0.26s-0.29-0.43-0.29-0.77
		c0-0.22,0.06-0.52,0.18-0.9l0.88-2.99c-1.26,1.51-2.76,2.81-4.5,3.89c-1.07,0.67-2.05,1.01-2.94,1.01c-0.85,0-1.5-0.3-1.96-0.9
		c-0.62-0.81-0.92-1.86-0.92-3.16c0-1.55,0.41-3.28,1.24-5.19c0.83-1.9,1.94-3.63,3.33-5.19c1.39-1.55,2.86-2.7,4.39-3.43
		c1.19-0.56,2.71-0.83,4.57-0.83c0.47,0,0.94,0.03,1.43,0.09L698.15,290.64z M695.43,294c-0.79-0.16-1.46-0.24-2-0.24
		c-1.32,0-2.47,0.36-3.45,1.09c-0.98,0.72-1.89,2.03-2.74,3.91c-0.84,1.88-1.26,3.76-1.26,5.64c0,1,0.17,1.71,0.5,2.15
		s0.78,0.66,1.32,0.66c1.01,0,2.09-0.55,3.25-1.64s2.01-2.66,2.55-4.71L695.43,294z M690.7,281.98h3.67l2.42,6.37h-1.32
		L690.7,281.98z"/>
	<path d="M721.09,304.2l0.75,0.79c-1.14,1.29-2.49,2.46-4.05,3.53c-1.56,1.06-2.85,1.59-3.86,1.59c-0.45,0-0.83-0.17-1.12-0.52
		c-0.29-0.34-0.44-0.82-0.44-1.42c0-1.17,0.45-3.6,1.36-7.29l2.37-9.65c0.86-3.49,1.59-5.82,2.17-7.01
		c0.91-1.79,2.19-3.19,3.85-4.18s3.41-1.49,5.26-1.49c0.63,0,1.12,0.15,1.48,0.45s0.54,0.67,0.54,1.1c0,0.47-0.18,0.86-0.53,1.16
		c-0.35,0.3-0.86,0.45-1.53,0.45c-0.44,0-1.06-0.07-1.86-0.22c-0.7-0.12-1.35-0.18-1.95-0.18c-0.6,0-1.05,0.12-1.36,0.37
		c-0.42,0.35-0.81,1.09-1.15,2.21c-0.34,1.12-0.9,3.34-1.67,6.65l-2.19,9.21c-1.08,4.61-1.63,7.02-1.63,7.23
		c0,0.47,0.17,0.7,0.5,0.7c0.32,0,0.79-0.19,1.41-0.57C718.66,306.36,719.88,305.38,721.09,304.2z"/>
	<path d="M737.72,290.64l1.45-0.31l-1.65,5.56c-0.66,2.21-1.28,4.76-1.87,7.65c-0.32,1.57-0.48,2.58-0.48,3.03s0.18,0.68,0.55,0.68
		c0.23,0,0.61-0.15,1.12-0.46c0.91-0.54,1.78-1.22,2.62-2.02l0.7,0.86c-1.67,1.52-2.74,2.45-3.21,2.77
		c-0.94,0.64-1.83,1.12-2.68,1.43c-0.56,0.21-1.1,0.31-1.63,0.31c-0.38,0-0.67-0.09-0.86-0.26s-0.29-0.43-0.29-0.77
		c0-0.22,0.06-0.52,0.18-0.9l0.88-2.99c-1.26,1.51-2.76,2.81-4.5,3.89c-1.07,0.67-2.05,1.01-2.94,1.01c-0.85,0-1.5-0.3-1.96-0.9
		c-0.62-0.81-0.92-1.86-0.92-3.16c0-1.55,0.41-3.28,1.24-5.19c0.83-1.9,1.94-3.63,3.33-5.19c1.39-1.55,2.86-2.7,4.39-3.43
		c1.19-0.56,2.71-0.83,4.57-0.83c0.47,0,0.94,0.03,1.43,0.09L737.72,290.64z M735,294c-0.79-0.16-1.46-0.24-2-0.24
		c-1.32,0-2.47,0.36-3.45,1.09c-0.98,0.72-1.89,2.03-2.74,3.91c-0.84,1.88-1.26,3.76-1.26,5.64c0,1,0.17,1.71,0.5,2.15
		s0.78,0.66,1.32,0.66c1.01,0,2.09-0.55,3.25-1.64s2.01-2.66,2.55-4.71L735,294z"/>
	<path d="M751.85,296.46l-0.86-0.88c1.33-1.6,2.66-2.78,3.98-3.54s2.46-1.14,3.43-1.14c0.37,0,0.66,0.09,0.87,0.27
		c0.21,0.18,0.32,0.45,0.32,0.8c0,0.42-0.05,0.86-0.14,1.31c-0.09,0.45-0.39,1.51-0.89,3.18c2.24-2.24,3.77-3.63,4.59-4.15
		c1.38-0.89,2.64-1.34,3.78-1.34c0.75,0,1.38,0.35,1.89,1.05s0.77,1.77,0.77,3.19c0,3.54-1.11,6.91-3.32,10.11s-4.66,4.79-7.33,4.79
		c-1.05,0-2.11-0.29-3.16-0.86l-1.88,7.25c-0.12,0.44-0.18,0.8-0.18,1.08c0,0.54,0.21,0.93,0.62,1.16c0.63,0.37,1.96,0.67,3.98,0.9
		l-0.29,1.1c-2.36-0.19-4.21-0.29-5.56-0.29c-1.39,0-3.19,0.1-5.4,0.29l0.29-1.1c1.11-0.12,1.92-0.42,2.43-0.92
		c0.51-0.5,0.91-1.38,1.22-2.66l3.98-16.68c0.75-3.11,1.12-4.83,1.12-5.19c0-0.38-0.18-0.57-0.55-0.57
		C754.9,293.63,753.67,294.57,751.85,296.46z M756.3,306.83c1.16,1.16,2.34,1.74,3.55,1.74c1.76,0,3.3-1.37,4.62-4.11
		c1.32-2.74,1.99-5.41,1.99-8.02c0-0.83-0.19-1.47-0.56-1.9c-0.37-0.43-0.87-0.65-1.5-0.65c-0.7,0-1.49,0.34-2.37,1.03
		c-1.36,1.07-2.4,2.13-3.11,3.19c-0.51,0.76-0.99,2.08-1.45,3.96L756.3,306.83z"/>
	<path d="M786.31,290.64l1.45-0.31l-1.65,5.56c-0.66,2.21-1.28,4.76-1.87,7.65c-0.32,1.57-0.48,2.58-0.48,3.03s0.18,0.68,0.55,0.68
		c0.23,0,0.61-0.15,1.12-0.46c0.91-0.54,1.78-1.22,2.62-2.02l0.7,0.86c-1.67,1.52-2.74,2.45-3.21,2.77
		c-0.94,0.64-1.83,1.12-2.68,1.43c-0.56,0.21-1.1,0.31-1.63,0.31c-0.38,0-0.67-0.09-0.86-0.26s-0.29-0.43-0.29-0.77
		c0-0.22,0.06-0.52,0.18-0.9l0.88-2.99c-1.26,1.51-2.76,2.81-4.5,3.89c-1.07,0.67-2.05,1.01-2.94,1.01c-0.85,0-1.5-0.3-1.96-0.9
		c-0.62-0.81-0.92-1.86-0.92-3.16c0-1.55,0.41-3.28,1.24-5.19c0.83-1.9,1.94-3.63,3.33-5.19c1.39-1.55,2.86-2.7,4.39-3.43
		c1.19-0.56,2.71-0.83,4.57-0.83c0.47,0,0.94,0.03,1.43,0.09L786.31,290.64z M783.58,294c-0.79-0.16-1.46-0.24-2-0.24
		c-1.32,0-2.47,0.36-3.45,1.09c-0.98,0.72-1.89,2.03-2.74,3.91c-0.84,1.88-1.26,3.76-1.26,5.64c0,1,0.17,1.71,0.5,2.15
		s0.78,0.66,1.32,0.66c1.01,0,2.09-0.55,3.25-1.64s2.01-2.66,2.55-4.71L783.58,294z"/>
	<path d="M805.01,290.86l1.77-0.4c-1.07,3.43-2.04,6.86-2.93,10.31c-0.64,2.46-1.09,4.51-1.34,6.15c-0.13,0.82-0.2,1.86-0.22,3.12
		c-0.03,2.11-0.26,3.81-0.7,5.1c-0.62,1.8-1.76,3.25-3.44,4.35s-3.67,1.65-5.97,1.65c-1.98,0-3.54-0.47-4.67-1.4s-1.7-2-1.7-3.2
		c0-1.19,0.46-2.29,1.37-3.32c0.68-0.78,2.08-1.71,4.23-2.81c1.09-0.57,2.11-1.16,3.06-1.76c-1.09,0.56-1.94,0.83-2.54,0.83
		c-0.54,0-1.03-0.25-1.45-0.76c-0.42-0.51-0.63-1.18-0.63-2.01c0-2.7,0.8-5.37,2.41-8.03c1.6-2.66,3.54-4.65,5.79-5.99
		c1.39-0.82,3.14-1.23,5.23-1.23c0.41,0,0.92,0.01,1.52,0.04L805.01,290.86z M799.58,306.09c-1,0.89-2.92,2.32-5.77,4.28
		c-2.51,1.7-4.05,2.92-4.62,3.67c-0.57,0.76-0.86,1.57-0.86,2.42c0,0.83,0.37,1.59,1.11,2.25c0.74,0.67,1.64,1,2.7,1
		c1,0,1.97-0.25,2.91-0.74c0.94-0.49,1.76-1.2,2.46-2.13s1.18-1.98,1.44-3.15c0.26-1.17,0.4-2.72,0.42-4.66
		C799.37,308.6,799.45,307.62,799.58,306.09z M802.56,294.11c-0.7-0.13-1.32-0.2-1.87-0.2c-1.39,0-2.58,0.37-3.58,1.1
		s-1.84,1.96-2.55,3.69c-0.98,2.45-1.47,4.5-1.47,6.17c0,0.69,0.19,1.27,0.58,1.74s0.82,0.7,1.31,0.7c0.59,0,1.31-0.28,2.17-0.85
		c0.86-0.56,1.57-1.27,2.12-2.12c0.55-0.85,1.11-2.31,1.68-4.39L802.56,294.11z"/>
	<path d="M819.73,303.98l0.73,0.97c-3.59,3.41-6.67,5.12-9.23,5.12c-1.04,0-1.83-0.35-2.38-1.05c-0.55-0.7-0.82-1.83-0.82-3.38
		c0-3.13,0.95-6.25,2.86-9.36c2.14-3.53,4.69-5.3,7.67-5.3c1.04,0,1.83,0.26,2.38,0.78c0.55,0.52,0.82,1.23,0.82,2.14
		c0,0.95-0.33,1.89-0.99,2.81c-0.66,0.92-1.84,1.88-3.54,2.88c-0.85,0.48-2.67,1.35-5.45,2.61c-0.13,0.79-0.2,1.55-0.2,2.26
		c0,1.04,0.16,1.77,0.49,2.18c0.33,0.41,0.81,0.62,1.44,0.62c0.6,0,1.26-0.17,1.98-0.51C816.45,306.29,817.87,305.37,819.73,303.98z
		 M812.04,300.79c2.36-1.05,4.13-2.19,5.32-3.41c0.81-0.85,1.21-1.69,1.21-2.53c0-0.63-0.16-1.13-0.49-1.5
		c-0.33-0.37-0.76-0.56-1.29-0.56c-0.54,0-1.07,0.21-1.58,0.62c-0.69,0.54-1.27,1.36-1.74,2.46
		C812.79,297.48,812.32,299.12,812.04,300.79z"/>
</g>
<line class="st2" x1="476.16" y1="391.77" x2="731.25" y2="391.77"/>
<line class="st2" x1="501.1" y1="417.1" x2="706.3" y2="417.1"/>
<line class="st2" x1="522.14" y1="441.35" x2="685.27" y2="441.35"/>
<line class="st2" x1="543.89" y1="465.6" x2="663.52" y2="465.6"/>
</svg>
