<?xml version="1.0" encoding="UTF-8"?><svg id="Calque_1" xmlns="http://www.w3.org/2000/svg" viewBox="0 0 1172 865.07"><g><path d="M244.08,8.4c9.94,0,17.92,1.68,23.52,5.88,5.46,4.06,9.1,10.5,9.1,19.74,0,18.06-13.72,26.88-27.3,28.7-2.1,.14-4.76,.14-6.3,0l-10.36-2.66v21.98c0,11.9,1.26,12.6,13.86,13.44v3.92h-37.94v-3.92c11.2-.84,12.32-1.96,12.32-13.58V25.9c0-12.32-1.12-12.88-11.48-13.58v-3.92h34.58Zm-11.34,47.04c1.82,.7,5.6,1.68,10.22,1.68,9.1,0,20.3-4.9,20.3-22.68,0-15.12-9.66-21.56-21.14-21.56-3.92,0-6.86,.7-7.84,1.68-1.12,.98-1.54,2.66-1.54,6.58V55.44Z"/><path d="M327.51,101.08c-2.1,0-5.04-1.26-6.58-2.66-1.82-1.96-2.66-3.92-3.36-6.3-5.6,3.78-12.32,8.96-16.52,8.96-9.94,0-16.8-8.26-16.8-17.08,0-6.86,3.64-11.2,11.34-13.86,8.4-2.8,18.62-6.58,21.7-9.1v-2.52c0-10.08-4.76-15.82-11.76-15.82-2.8,0-4.9,1.12-6.3,2.8-1.82,1.82-3.08,4.9-4.2,9.24-.56,2.24-2.1,3.22-4.06,3.22-2.52,0-6.16-2.8-6.16-6.02,0-2.1,1.82-3.64,4.48-5.6,3.92-2.8,13.02-8.26,21-9.8,4.2,0,8.4,1.26,11.48,3.78,4.9,4.06,6.3,9.8,6.3,17.08v26.04c0,6.3,2.52,8.4,4.9,8.4,1.68,0,3.64-.7,5.04-1.54l1.4,3.64-11.9,7.14Zm-10.22-35.28c-2.94,1.54-9.66,4.48-12.6,5.88-5.46,2.52-8.54,5.18-8.54,10.22,0,7.28,5.6,10.78,9.94,10.78,3.64-.14,8.54-2.52,11.2-5.04v-21.84Z"/></g><path d="M364.61,51.38c4.2-7,10.22-14.84,16.94-14.84,4.76,0,8.12,3.64,8.12,7,0,2.8-1.82,5.6-4.48,6.86-1.68,.7-2.94,.56-3.78-.28-1.96-2.1-3.64-2.94-5.88-2.94-3.64,0-8.12,4.2-11.2,12.04v25.62c0,9.24,.7,10.08,11.48,10.92v3.64h-32.2v-3.64c8.68-.84,9.66-1.68,9.66-10.92v-28.98c0-9.24-.7-9.8-8.68-10.92v-3.08c6.86-1.12,13.02-2.8,19.74-5.74v15.26h.28Z"/><g><path d="M446.24,86.8c-6.16,8.12-15.54,14.28-23.8,14.28-17.64,0-28-14.28-28-29.26,0-10.78,4.62-20.16,14-27.44,7.28-5.6,15.68-7.84,21.14-7.84s10.22,1.82,12.46,3.64c1.82,1.54,2.24,2.8,2.24,4.34,0,2.94-3.08,6.02-4.62,6.02-.7,0-1.4-.42-2.66-1.54-4.2-3.92-9.1-5.74-14-5.74-9.24,0-17.36,7.7-17.36,22.4,0,19.46,13.3,25.9,21.14,25.9,6.02,0,10.64-1.68,17.08-7.7l2.38,2.94Z"/><path d="M503.22,87.5c-8.82,11.06-18.48,13.58-22.82,13.58-17.22,0-27.3-14-27.3-29.82,0-9.66,3.5-18.2,9.24-24.5,5.74-6.44,13.3-10.22,20.58-10.22,11.62,0,21,10.36,21,21.28,0,2.8-.7,3.92-3.22,4.48-2.38,.42-19.88,1.82-36.54,2.38,.14,19.04,11.06,26.88,20.86,26.88,5.6,0,10.92-2.24,15.96-7l2.24,2.94Zm-38.36-28.56c7.84,0,15.54-.14,23.66-.42,2.52,0,3.36-.84,3.36-2.8,.14-7.28-4.62-14-12.32-14-6.44,0-12.6,5.88-14.7,17.22Z"/><path d="M576.85,133.28v-3.78c10.92-.98,11.9-1.68,11.9-11.62v-22.68l-14.84,5.88c-20.44,0-30.1-15.82-30.1-29.4,0-20.02,18.2-35.28,37.38-35.14,5.04,.42,8.12,1.12,9.8,1.82,1.82,.56,2.52,.7,3.78,.7,.84,0,2.66-.56,4.76-1.54l.56,.42c-.14,2.94-.42,5.6-.42,14.98V118.02c0,9.94,.98,10.36,10.78,11.48v3.78h-33.6Zm11.9-85.26c-3.22-3.64-9.24-5.88-13.72-5.88-9.52,0-18.76,8.4-18.76,24.92s11.76,26.18,22.12,26.18c4.34,0,7.56-.98,10.36-2.24V48.02Z"/><path d="M681.99,96.04c-6.44,.98-13.58,2.94-20.58,5.04l-.84-.84v-9.94c-3.22,2.38-6.44,4.9-10.36,7.28-4.06,2.38-7,3.5-10.78,3.5-9.38,0-17.36-5.74-17.36-20.86v-27.44c0-7.7-.56-8.26-8.54-9.8v-3.22c6.58-.42,13.3-1.26,20.02-2.52-.42,4.34-.42,10.92-.42,20.44v18.76c0,12.46,6.02,15.82,12.32,15.82,5.04,0,10.36-2.1,15.12-6.72V52.92c0-7.98-.84-8.54-10.92-9.94v-3.22c7.28-.42,14.56-.98,21.98-2.52v46.76c0,7,1.12,7.98,6.44,8.26l3.92,.28v3.5Z"/></g><path d="M705.65,14.28c0,9.8-9.1,15.96-17.92,18.2l-1.4-3.78c6.72-2.8,10.78-6.02,10.78-11.76,0-4.9-4.06-7.84-8.68-8.68-.98-.14-1.82-1.12-1.82-2.8,0-3.78,3.5-5.46,5.88-5.46,6.02,0,13.16,5.32,13.16,14.28Z"/><g><path d="M123.96,297.72c-7.28,.98-8.54,2.24-12.32,10.64-4.62,10.5-12.04,27.72-19.74,48.58h-3.78c-6.3-16.8-12.74-32.76-19.32-49-3.22-8.12-4.34-9.1-11.9-10.22v-3.5h28.7v3.5c-7.56,.98-7.84,2.1-5.6,8.12,3.64,9.8,9.24,24.5,13.3,34.58,4.9-11.62,9.38-24.36,12.46-33.46,2.1-6.72,1.26-8.26-6.72-9.24v-3.5h24.92v3.5Z"/><path d="M170.72,357.08c-2.1,0-5.04-1.26-6.58-2.66-1.82-1.96-2.66-3.92-3.36-6.3-5.6,3.78-12.32,8.96-16.52,8.96-9.94,0-16.8-8.26-16.8-17.08,0-6.86,3.64-11.2,11.34-13.86,8.4-2.8,18.62-6.58,21.7-9.1v-2.52c0-10.08-4.76-15.82-11.76-15.82-2.8,0-4.9,1.12-6.3,2.8-1.82,1.82-3.08,4.9-4.2,9.24-.56,2.24-2.1,3.22-4.06,3.22-2.52,0-6.16-2.8-6.16-6.02,0-2.1,1.82-3.64,4.48-5.6,3.92-2.8,13.02-8.26,21-9.8,4.2,0,8.4,1.26,11.48,3.78,4.9,4.06,6.3,9.8,6.3,17.08v26.04c0,6.3,2.52,8.4,4.9,8.4,1.68,0,3.64-.7,5.04-1.54l1.4,3.64-11.9,7.14Zm-10.22-35.28c-2.94,1.54-9.66,4.48-12.6,5.88-5.46,2.52-8.54,5.18-8.54,10.22,0,7.28,5.6,10.78,9.94,10.78,3.64-.14,8.54-2.52,11.2-5.04v-21.84Z"/></g><g><path d="M253.32,352.04c-6.44,.98-13.58,2.94-20.58,5.04l-.84-.84v-9.94c-3.22,2.38-6.44,4.9-10.36,7.28-4.06,2.38-7,3.5-10.78,3.5-9.38,0-17.36-5.74-17.36-20.86v-27.44c0-7.7-.56-8.26-8.54-9.8v-3.22c6.58-.42,13.3-1.26,20.02-2.52-.42,4.34-.42,10.92-.42,20.44v18.76c0,12.46,6.02,15.82,12.32,15.82,5.04,0,10.36-2.1,15.12-6.72v-32.62c0-7.98-.84-8.54-10.92-9.94v-3.22c7.28-.42,14.56-.98,21.98-2.52v46.76c0,7,1.12,7.98,6.44,8.26l3.92,.28v3.5Z"/><path d="M285.66,355.26c-2.38,1.26-4.62,1.82-5.88,1.82-8.82,0-13.72-5.6-13.72-16.66v-40.74h-9.66l-.56-1.4,3.78-4.06h6.44v-10.22l9.1-9.24,1.96,.28v19.18h15.82c1.26,1.4,.84,4.48-.84,5.46h-14.98v35.98c0,11.34,4.62,13.44,8.12,13.44s6.72-1.4,8.68-2.38l1.26,3.64-9.52,4.9Z"/></g><g><path d="M409.55,355.4v-3.64c8.26-.84,9.8-1.4,9.8-11.34v-23.38c0-9.94-3.5-16.24-12.32-16.24-5.04,0-10.36,2.8-15.68,7.28,.28,1.68,.42,3.22,.42,5.88v27.3c0,8.82,1.26,9.66,8.96,10.5v3.64h-29.96v-3.64c8.68-.84,9.94-1.54,9.94-10.78v-24.08c0-10.36-3.64-16.1-12.18-16.1-5.6,0-11.06,3.78-15.26,7.28v32.9c0,9.1,1.12,9.94,7.98,10.78v3.64h-29.54v-3.64c9.24-.84,10.5-1.68,10.5-10.78v-28.98c0-8.96-.42-9.66-8.54-10.92v-3.22c6.16-1.12,13.3-2.94,19.46-5.74v11.34c2.94-1.96,6.02-4.48,10.22-7.14,3.64-2.24,7-3.78,11.48-3.78,6.72,0,12.74,4.2,15.54,11.48,4.06-3.08,8.12-5.74,11.62-7.84,2.94-1.96,6.58-3.64,10.5-3.64,10.92,0,17.78,7.7,17.78,21.42v27.02c0,9.38,1.12,9.94,9.1,10.78v3.64h-29.82Z"/><path d="M447.07,355.4v-3.64c8.82-.84,9.8-1.68,9.8-11.2v-28.84c0-8.68-.42-9.24-8.82-10.64v-3.36c7.14-1.12,13.72-2.94,19.88-5.46v48.3c0,9.52,.98,10.36,9.94,11.2v3.64h-30.8Zm7.42-82.18c0-4.2,3.36-7.28,7.14-7.28s7,3.08,7,7.28c0,3.78-3.08,7.14-7.14,7.14-3.64,0-7-3.36-7-7.14Z"/><path d="M535.41,343.5c-8.82,11.06-18.48,13.58-22.82,13.58-17.22,0-27.3-14-27.3-29.82,0-9.66,3.5-18.2,9.24-24.5,5.74-6.44,13.3-10.22,20.58-10.22,11.62,0,21,10.36,21,21.28,0,2.8-.7,3.92-3.22,4.48-2.38,.42-19.88,1.82-36.54,2.38,.14,19.04,11.06,26.88,20.86,26.88,5.6,0,10.92-2.24,15.96-7l2.24,2.94Zm-38.36-28.56c7.84,0,15.54-.14,23.66-.42,2.52,0,3.36-.84,3.36-2.8,.14-7.28-4.62-14-12.32-14-6.44,0-12.6,5.88-14.7,17.22Z"/><path d="M612.13,352.04c-6.44,.98-13.58,2.94-20.58,5.04l-.84-.84v-9.94c-3.22,2.38-6.44,4.9-10.36,7.28-4.06,2.38-7,3.5-10.78,3.5-9.38,0-17.36-5.74-17.36-20.86v-27.44c0-7.7-.56-8.26-8.54-9.8v-3.22c6.58-.42,13.3-1.26,20.02-2.52-.42,4.34-.42,10.92-.42,20.44v18.76c0,12.46,6.02,15.82,12.32,15.82,5.04,0,10.36-2.1,15.12-6.72v-32.62c0-7.98-.84-8.54-10.92-9.94v-3.22c7.28-.42,14.56-.98,21.98-2.52v46.76c0,7,1.12,7.98,6.44,8.26l3.92,.28v3.5Z"/><path d="M650.35,355.4v-3.64c6.02-.7,7.14-1.82,4.76-5.6l-10.36-16.38c-3.08,4.62-6.3,9.8-8.96,14.84-2.66,4.76-2.38,6.02,4.9,7.14v3.64h-26.18v-3.64c8.68-1.12,10.22-2.24,15.82-9.24,3.92-4.9,7.7-10.5,11.76-16.8l-12.18-19.04c-4.2-6.86-6.02-7.98-13.72-8.96v-3.5h28v3.5c-6.02,.84-6.44,2.1-3.92,6.02l8.26,12.88c2.8-4.06,5.6-8.4,8.12-13.02,2.52-4.48,1.54-5.18-4.48-5.88v-3.5h25.48v3.5c-8.54,.98-10.36,1.68-15.4,7.56-2.8,3.5-6.3,8.54-10.92,15.4l13.72,20.72c5.18,7.98,6.86,9.24,15.4,10.36v3.64h-30.1Z"/></g><g><path d="M95.68,517.28v-3.78c10.92-.98,11.9-1.68,11.9-11.62v-22.68l-14.84,5.88c-20.44,0-30.1-15.82-30.1-29.4,0-20.02,18.2-35.28,37.38-35.14,5.04,.42,8.12,1.12,9.8,1.82,1.82,.56,2.52,.7,3.78,.7,.84,0,2.66-.56,4.76-1.54l.56,.42c-.14,2.94-.42,5.6-.42,14.98v65.1c0,9.94,.98,10.36,10.78,11.48v3.78h-33.6Zm11.9-85.26c-3.22-3.64-9.24-5.88-13.72-5.88-9.52,0-18.76,8.4-18.76,24.92s11.76,26.18,22.12,26.18c4.34,0,7.56-.98,10.36-2.24v-42.98Z"/><path d="M201.24,480.04c-6.44,.98-13.58,2.94-20.58,5.04l-.84-.84v-9.94c-3.22,2.38-6.44,4.9-10.36,7.28-4.06,2.38-7,3.5-10.78,3.5-9.38,0-17.36-5.74-17.36-20.86v-27.44c0-7.7-.56-8.26-8.54-9.8v-3.22c6.58-.42,13.3-1.26,20.02-2.52-.42,4.34-.42,10.92-.42,20.44v18.76c0,12.46,6.02,15.82,12.32,15.82,5.04,0,10.36-2.1,15.12-6.72v-32.62c0-7.98-.84-8.54-10.92-9.94v-3.22c7.28-.42,14.56-.98,21.98-2.52v46.76c0,7,1.12,7.98,6.44,8.26l3.92,.28v3.5Z"/><path d="M258.36,471.5c-8.82,11.06-18.48,13.58-22.82,13.58-17.22,0-27.3-14-27.3-29.82,0-9.66,3.5-18.2,9.24-24.5,5.74-6.44,13.3-10.22,20.58-10.22,11.62,0,21,10.36,21,21.28,0,2.8-.7,3.92-3.22,4.48-2.38,.42-19.88,1.82-36.54,2.38,.14,19.04,11.06,26.88,20.86,26.88,5.6,0,10.92-2.24,15.96-7l2.24,2.94Zm-38.36-28.56c7.84,0,15.54-.14,23.66-.42,2.52,0,3.36-.84,3.36-2.8,.14-7.28-4.62-14-12.32-14-6.44,0-12.6,5.88-14.7,17.22Z"/></g><path d="M812.29,458.53v-17.12c57.69-4.44,60.86-9.51,60.86-55.16V142.17c0-32.97-2.54-36.14-30.43-37.41l-30.43-1.27v-14.58c40.58-6.97,77.98-19.02,112.85-32.97V386.26c0,45.65,3.8,50.72,61.5,55.16v17.12h-174.35Z"/><path d="M662.66,570.55c-4.12,13.31-7.29,27.26-11.09,41.53h-118.56v-7.29c17.75-17.44,35.5-35.5,51.35-53.89,19.65-23.46,39.63-49.45,39.63-76.71s-13.95-42.16-37.41-42.16c-21.56,0-34.87,17.12-43.11,29.48l-6.97-6.34,18.07-25.68c9.51-10.46,24.41-18.7,42.79-18.7,27.9,0,53.26,20.29,53.26,53.57,0,27.58-12.68,46.28-41.84,77.35l-45.01,47.23h59.28c17.12,0,21.24-1.27,30.75-21.24l8.88,2.85Z"/><path d="M291.76,719.94c11.36,0,20.48,1.92,26.88,6.72,6.24,4.64,10.4,12,10.4,22.56,0,20.64-15.68,30.72-31.2,32.8-2.4,.16-5.44,.16-7.2,0l-11.84-3.04v25.12c0,13.6,1.44,14.4,15.84,15.36v4.48h-43.36v-4.48c12.8-.96,14.08-2.24,14.08-15.52v-64c0-14.08-1.28-14.72-13.12-15.52v-4.48h39.52Zm-12.96,53.76c2.08,.8,6.4,1.92,11.68,1.92,10.4,0,23.2-5.6,23.2-25.92,0-17.28-11.04-24.64-24.16-24.64-4.48,0-7.84,.8-8.96,1.92-1.28,1.12-1.76,3.04-1.76,7.52v39.2Z" style="fill:#6eb52c;"/><g><path d="M405.53,787.79c0,25.76-18.88,38.08-34.72,38.08-21.92,0-35.04-17.6-35.04-35.36,0-26.4,20.48-38.4,35.04-38.4,19.84,0,34.72,15.84,34.72,35.68Zm-54.88-2.4c0,20.16,8.8,35.2,21.92,35.2,9.92,0,18.08-7.36,18.08-29.28,0-18.72-7.52-33.92-21.44-33.92-9.92,0-18.56,9.92-18.56,28Z" style="fill:#6eb52c;"/><path d="M412.72,823.95v-4.16c10.08-.96,11.52-1.92,11.52-12.48v-75.68c0-10.88-.96-11.36-11.04-12.16v-3.84c8.32-.96,18.24-3.68,23.68-5.6v97.28c0,10.56,1.28,11.52,11.52,12.48v4.16h-35.68Z" style="fill:#6eb52c;"/><path d="M526.16,758.02c-8.48,1.28-9.92,2.56-14.24,11.68-4,8.48-8.96,21.76-20,48.16-10.72,25.6-14.24,34.72-16.48,43.36-.8,3.04-2.88,3.84-5.12,3.84-4.48,0-9.12-3.84-9.12-7.68,0-2.56,1.44-4,4.16-5.76,4.96-3.2,8.16-7.2,11.84-14.24,3.04-5.6,4.32-8.96,4.96-11.04,.8-2.4,.8-4.48-.16-7.2-6.4-18.24-13.6-37.6-18.4-48.96-3.36-8.8-4.96-10.88-13.76-12.16v-4h32.48v4c-7.36,1.28-8.16,2.88-6.08,8.8l14.56,40.16c4.48-10.88,11.36-29.76,14.72-39.84,1.92-6.08,.8-7.84-8.32-9.12v-4h28.96v4Z" style="fill:#6eb52c;"/></g><g><path d="M564.89,754.51c2.88-1.6,5.92-2.4,7.84-2.4,17.76,0,28.32,14.4,28.32,30.24,0,24.16-19.04,39.68-39.84,43.52-4.64-.16-8.96-1.76-11.04-2.88v20.96c0,12.16,1.12,12.96,13.6,14.08v4.32h-37.92v-4.32c10.24-.96,11.68-1.92,11.68-12.48v-72.32c0-10.4-.64-10.72-10.56-12v-3.84c6.72-1.12,15.68-3.84,23.2-6.88v12.64l14.72-8.64Zm-14.72,57.28c3.52,3.68,9.6,6.24,15.04,6.24,13.44,0,22.4-11.52,22.4-29.6,0-17.12-9.76-26.72-21.44-26.72-5.12,0-11.68,3.52-16,6.72v43.36Z" style="fill:#6eb52c;"/><path d="M663.44,825.87c-2.4,0-5.76-1.44-7.52-3.04-2.08-2.24-3.04-4.48-3.84-7.2-6.4,4.32-14.08,10.24-18.88,10.24-11.36,0-19.2-9.44-19.2-19.52,0-7.84,4.16-12.8,12.96-15.84,9.6-3.2,21.28-7.52,24.8-10.4v-2.88c0-11.52-5.44-18.08-13.44-18.08-3.2,0-5.6,1.28-7.2,3.2-2.08,2.08-3.52,5.6-4.8,10.56-.64,2.56-2.4,3.68-4.64,3.68-2.88,0-7.04-3.2-7.04-6.88,0-2.4,2.08-4.16,5.12-6.4,4.48-3.2,14.88-9.44,24-11.2,4.8,0,9.6,1.44,13.12,4.32,5.6,4.64,7.2,11.2,7.2,19.52v29.76c0,7.2,2.88,9.6,5.6,9.6,1.92,0,4.16-.8,5.76-1.76l1.6,4.16-13.6,8.16Zm-11.68-40.32c-3.36,1.76-11.04,5.12-14.4,6.72-6.24,2.88-9.76,5.92-9.76,11.68,0,8.32,6.4,12.32,11.36,12.32,4.16-.16,9.76-2.88,12.8-5.76v-24.96Z" style="fill:#6eb52c;"/></g><path d="M716.72,754.51c2.88-1.6,5.92-2.4,7.84-2.4,17.76,0,28.32,14.4,28.32,30.24,0,24.16-19.04,39.68-39.84,43.52-4.64-.16-8.96-1.76-11.04-2.88v20.96c0,12.16,1.12,12.96,13.6,14.08v4.32h-37.92v-4.32c10.24-.96,11.68-1.92,11.68-12.48v-72.32c0-10.4-.64-10.72-10.56-12v-3.84c6.72-1.12,15.68-3.84,23.2-6.88v12.64l14.72-8.64Zm-14.72,57.28c3.52,3.68,9.6,6.24,15.04,6.24,13.44,0,22.4-11.52,22.4-29.6,0-17.12-9.76-26.72-21.44-26.72-5.12,0-11.68,3.52-16,6.72v43.36Z" style="fill:#6eb52c;"/><g><path d="M762,823.95v-4.16c10.08-.96,11.2-1.92,11.2-12.8v-32.96c0-9.92-.48-10.56-10.08-12.16v-3.84c8.16-1.28,15.68-3.36,22.72-6.24v55.2c0,10.88,1.12,11.84,11.36,12.8v4.16h-35.2Zm8.48-93.92c0-4.8,3.84-8.32,8.16-8.32s8,3.52,8,8.32c0,4.32-3.52,8.16-8.16,8.16-4.16,0-8-3.84-8-8.16Z" style="fill:#6eb52c;"/><path d="M862.95,810.35c-10.08,12.64-21.12,15.52-26.08,15.52-19.68,0-31.2-16-31.2-34.08,0-11.04,4-20.8,10.56-28,6.56-7.36,15.2-11.68,23.52-11.68,13.28,0,24,11.84,24,24.32,0,3.2-.8,4.48-3.68,5.12-2.72,.48-22.72,2.08-41.76,2.72,.16,21.76,12.64,30.72,23.84,30.72,6.4,0,12.48-2.56,18.24-8l2.56,3.36Zm-43.84-32.64c8.96,0,17.76-.16,27.04-.48,2.88,0,3.84-.96,3.84-3.2,.16-8.32-5.28-16-14.08-16-7.36,0-14.4,6.72-16.8,19.68Z" style="fill:#6eb52c;"/><path d="M897.03,769.07c4.8-8,11.68-16.96,19.36-16.96,5.44,0,9.28,4.16,9.28,8,0,3.2-2.08,6.4-5.12,7.84-1.92,.8-3.36,.64-4.32-.32-2.24-2.4-4.16-3.36-6.72-3.36-4.16,0-9.28,4.8-12.8,13.76v29.28c0,10.56,.8,11.52,13.12,12.48v4.16h-36.8v-4.16c9.92-.96,11.04-1.92,11.04-12.48v-33.12c0-10.56-.8-11.2-9.92-12.48v-3.52c7.84-1.28,14.88-3.2,22.56-6.56v17.44h.32Z" style="fill:#6eb52c;"/></g><line y1="659.62" x2="1172" y2="659.62" style="fill:none; stroke:#000; stroke-width:9px;"/><g><path d="M1016.16,91.74c1.4,2.52,2.1,5.18,2.1,6.86,0,15.54-12.6,24.78-26.46,24.78-21.14,0-34.72-16.66-38.08-34.86,.14-4.06,1.54-7.84,2.52-9.66h-18.34c-10.64,0-11.34,.98-12.32,11.9h-3.78V57.58h3.78c.84,8.96,1.68,10.22,10.92,10.22h63.28c9.1,0,9.38-.56,10.5-9.24h3.36c.98,5.88,3.36,13.72,6.02,20.3h-11.06l7.56,12.88Zm-50.12-12.88c-3.22,3.08-5.46,8.4-5.46,13.16,0,11.76,10.08,19.6,25.9,19.6,14.98,0,23.38-8.54,23.38-18.76,0-4.48-3.08-10.22-5.88-14h-37.94Z"/><path d="M953.72,177.98c0-2.1,1.26-5.04,2.66-6.58,1.96-1.82,3.92-2.66,6.3-3.36-3.78-5.6-8.96-12.32-8.96-16.52,0-9.94,8.26-16.8,17.08-16.8,6.86,0,11.2,3.64,13.86,11.34,2.8,8.4,6.58,18.62,9.1,21.7h2.52c10.08,0,15.82-4.76,15.82-11.76,0-2.8-1.12-4.9-2.8-6.3-1.82-1.82-4.9-3.08-9.24-4.2-2.24-.56-3.22-2.1-3.22-4.06,0-2.52,2.8-6.16,6.02-6.16,2.1,0,3.64,1.82,5.6,4.48,2.8,3.92,8.26,13.02,9.8,21,0,4.2-1.26,8.4-3.78,11.48-4.06,4.9-9.8,6.3-17.08,6.3h-26.04c-6.3,0-8.4,2.52-8.4,4.9,0,1.68,.7,3.64,1.54,5.04l-3.64,1.4-7.14-11.9Zm35.28-10.22c-1.54-2.94-4.48-9.66-5.88-12.6-2.52-5.46-5.18-8.54-10.22-8.54-7.28,0-10.78,5.6-10.78,9.94,.14,3.64,2.52,8.54,5.04,11.2h21.84Z"/></g><path d="M1016.16,224.6c1.4,2.52,2.1,5.18,2.1,6.86,0,15.54-12.6,24.78-26.46,24.78-21.14,0-34.72-16.66-38.08-34.86,.14-4.06,1.54-7.84,2.52-9.66h-18.34c-10.64,0-11.34,.98-12.32,11.9h-3.78v-33.18h3.78c.84,8.96,1.68,10.22,10.92,10.22h63.28c9.1,0,9.38-.56,10.5-9.24h3.36c.98,5.88,3.36,13.72,6.02,20.3h-11.06l7.56,12.88Zm-50.12-12.88c-3.22,3.08-5.46,8.4-5.46,13.16,0,11.76,10.08,19.6,25.9,19.6,14.98,0,23.38-8.54,23.38-18.76,0-4.48-3.08-10.22-5.88-14h-37.94Z"/><g><path d="M955.4,264.22h3.64c.84,8.82,1.68,9.8,11.2,9.8h28.84c8.68,0,9.24-.42,10.64-8.82h3.36c1.12,7.14,2.94,13.72,5.46,19.88h-48.3c-9.52,0-10.36,.98-11.2,9.94h-3.64v-30.8Zm82.18,7.42c4.2,0,7.28,3.36,7.28,7.14s-3.08,7-7.28,7c-3.78,0-7.14-3.08-7.14-7.14,0-3.64,3.36-7,7.14-7Z"/><path d="M967.3,352.56c-11.06-8.82-13.58-18.48-13.58-22.82,0-17.22,14-27.3,29.82-27.3,9.66,0,18.2,3.5,24.5,9.24,6.44,5.74,10.22,13.3,10.22,20.58,0,11.62-10.36,21-21.28,21-2.8,0-3.92-.7-4.48-3.22-.42-2.38-1.82-19.88-2.38-36.54-19.04,.14-26.88,11.06-26.88,20.86,0,5.6,2.24,10.92,7,15.96l-2.94,2.24Zm28.56-38.36c0,7.84,.14,15.54,.42,23.66,0,2.52,.84,3.36,2.8,3.36,7.28,.14,14-4.62,14-12.32,0-6.44-5.88-12.6-17.22-14.7Z"/><path d="M1003.42,382.38c7,4.2,14.84,10.22,14.84,16.94,0,4.76-3.64,8.12-7,8.12-2.8,0-5.6-1.82-6.86-4.48-.7-1.68-.56-2.94,.28-3.78,2.1-1.96,2.94-3.64,2.94-5.88,0-3.64-4.2-8.12-12.04-11.2h-25.62c-9.24,0-10.08,.7-10.92,11.48h-3.64v-32.2h3.64c.84,8.68,1.68,9.66,10.92,9.66h28.98c9.24,0,9.8-.7,10.92-8.68h3.08c1.12,6.86,2.8,13.02,5.74,19.74h-15.26v.28Z"/></g></svg>