<?xml version="1.0" encoding="utf-8"?>
<!-- Generator: Adobe Illustrator 27.0.0, SVG Export Plug-In . SVG Version: 6.00 Build 0)  -->
<svg version="1.1" id="Calque_1" xmlns="http://www.w3.org/2000/svg" xmlns:xlink="http://www.w3.org/1999/xlink" x="0px" y="0px"
	 viewBox="0 0 383.26 382.94" style="enable-background:new 0 0 383.26 382.94;" xml:space="preserve">
<style type="text/css">
	.st0{fill:#FEEA0A;}
</style>
<g>
	<path class="st0" d="M0,99.91c4.18-31.64,30.61-56.88,63.04-56.88c28.44-0.2,56.89-0.11,85.33-0.04
		c12.51,0.03,21.91,9.22,21.95,21.19c0.04,11.9-9.36,21.31-21.85,21.37c-27.45,0.13-54.9,0.42-82.33-0.11
		c-13.88-0.27-23.72,10.15-23.66,23.47c0.31,69.61,0.14,139.22,0.15,208.84c0,14.62,8.62,23.24,23.24,23.25
		c69.61,0.01,139.23,0.01,208.84,0c14.69,0,23.3-8.56,23.31-23.16c0.02-27.45-0.05-54.89,0.03-82.34
		c-0.63-28.52,42.18-29.34,42.55-0.99c0.09,22.7,0.18,45.41-0.03,68.11c4.27,36.83-14.72,80.33-54.8,80.33c-230.95,0,0,0-230.95,0
		c-29.29,0-50.69-27.58-54.82-56.22C0,251.11,0,175.51,0,99.91z"/>
	<path class="st0" d="M234.77,42.93c-15.26-0.06-25.54-14.26-20.65-28.32c3.03-8.71,10.98-14.24,20.74-14.25
		c30.93-0.03,61.86-0.01,92.79-0.01c20.05,1.17,55.34-7.64,55.59,22.37c0.03,41.9,0.03,83.81,0,125.71
		c-0.01,12.7-9.25,22.26-21.31,22.23c-12.07-0.03-21.25-9.57-21.28-22.29c-0.05-22.72-0.02-45.44-0.01-68.17
		c0-3.04-3.71-4.51-5.8-2.3c-54.88,57.91-113.21,113.07-169.1,170.16c-6.33,6.34-13.53,9.3-22.33,6.92
		c-14.81-4.02-20.48-21.76-10.95-33.71c0.09-0.11,0.19-0.22,0.29-0.32c57.38-57.49,114.45-115.44,172.5-172.24
		c2.15-2.11,0.66-5.76-2.35-5.76C280.19,42.96,257.48,43.02,234.77,42.93z"/>
</g>
</svg>
