<?xml version="1.0" encoding="utf-8"?>
<!-- Generator: Adobe Illustrator 27.0.0, SVG Export Plug-In . SVG Version: 6.00 Build 0)  -->
<svg version="1.1" id="Calque_1" xmlns="http://www.w3.org/2000/svg" xmlns:xlink="http://www.w3.org/1999/xlink" x="0px" y="0px"
	 viewBox="0 0 43.57 135.77" style="enable-background:new 0 0 43.57 135.77;" xml:space="preserve">
<style type="text/css">
	.st0{fill:#FEEA10;}
	.st1{fill:none;stroke:#FEEA10;stroke-width:7;stroke-linecap:square;stroke-miterlimit:10;}
</style>
<g>
	<polygon class="st0" points="5.36,10.12 4.84,18.31 26.99,0 25.77,8.01 0.02,29.34 0,14.33 	"/>
	<g>
		<polygon class="st0" points="0.02,121.44 0.04,106.43 25.79,127.76 27.01,135.77 4.86,117.47 5.38,125.65 		"/>
	</g>
	<polyline class="st1" points="14.51,33.55 39.02,67.72 14.51,100.39 	"/>
</g>
<g>
	<polygon class="st0" points="83.81,10.12 84.33,18.31 62.18,0 63.4,8.01 89.15,29.34 89.17,14.33 	"/>
	<g>
		<polygon class="st0" points="89.15,121.44 89.13,106.43 63.38,127.76 62.16,135.77 84.31,117.47 83.79,125.65 		"/>
	</g>
	<polyline class="st1" points="74.66,33.55 50.15,67.72 74.66,100.39 	"/>
</g>
</svg>
