<?xml version="1.0" encoding="utf-8"?>
<!-- Generator: Adobe Illustrator 27.0.0, SVG Export Plug-In . SVG Version: 6.00 Build 0)  -->
<svg version="1.1" id="Calque_1" xmlns="http://www.w3.org/2000/svg" xmlns:xlink="http://www.w3.org/1999/xlink" x="0px" y="0px"
	 viewBox="0 0 43.71 135.77" style="enable-background:new 0 0 43.71 135.77;" xml:space="preserve">
<style type="text/css">
	.st0{fill:#FEEA10;}
	.st1{fill:none;stroke:#FEEA10;stroke-width:7;stroke-linecap:square;stroke-miterlimit:10;}
</style>
<g>
	<polygon class="st0" points="-40.1,10.12 -40.62,18.31 -18.47,0 -19.69,8.01 -45.45,29.34 -45.46,14.33 	"/>
	<g>
		<polygon class="st0" points="-45.45,121.44 -45.43,106.43 -19.67,127.76 -18.46,135.77 -40.6,117.47 -40.08,125.65 		"/>
	</g>
	<polyline class="st1" points="-30.95,33.55 -6.45,67.72 -30.95,100.39 	"/>
</g>
<g>
	<polygon class="st0" points="38.35,10.12 38.86,18.31 16.72,0 17.93,8.01 43.69,29.34 43.71,14.33 	"/>
	<g>
		<polygon class="st0" points="43.69,121.44 43.67,106.43 17.91,127.76 16.7,135.77 38.84,117.47 38.33,125.65 		"/>
	</g>
	<polyline class="st1" points="29.19,33.55 4.69,67.72 29.19,100.39 	"/>
</g>
</svg>
